<svg width="447" height="432" viewBox="0 0 447 432" fill="none" xmlns="http://www.w3.org/2000/svg">
<circle cx="254.007" cy="265.487" r="166.013" fill="#FF6060"/>
<mask id="mask0_427_2075" style="mask-type:alpha" maskUnits="userSpaceOnUse" x="0" y="-62" width="447" height="494">
<path d="M420.02 265.487C420.02 357.173 345.693 431.5 254.007 431.5C162.32 431.5 87.9936 357.173 87.9936 265.487C-107.85 336.172 72.1802 -62 163.867 -62C255.553 -62 532.857 151.353 420.02 265.487Z" fill="#FF6060"/>
</mask>
<g mask="url(#mask0_427_2075)">
<path d="M315.976 578.548H358.457C362.083 559.383 365.469 536.192 367.977 517.494C370.611 497.987 372.287 483.393 372.287 483.393C372.287 477.499 372.184 470.316 371.99 462.506C371.249 427.926 369.186 381.204 369.186 381.204C312.852 381.204 299.125 431.689 299.125 431.689C299.125 431.689 303.184 464.365 307.368 499.241C311.313 532.453 315.372 567.717 315.976 578.548Z" fill="url(#paint0_linear_427_2075)"/>
<path d="M196.651 578.548H244.969C249.833 568.154 253.855 557.387 256.998 546.35C258.081 542.554 259.198 538.541 260.338 534.356C263.599 522.476 267.054 509.376 270.223 497.211C276.574 472.824 281.704 452.165 281.704 452.165L299.103 431.643C299.103 392.4 243.236 360.955 243.236 360.955C243.236 360.955 229.726 369.973 216.364 404.656C211.459 417.661 207.478 430.995 204.45 444.56C190.939 503.744 196.97 555.255 196.651 578.548Z" fill="url(#paint1_linear_427_2075)"/>
<path d="M315.976 578.548H358.457C362.083 559.383 365.469 536.192 367.977 517.494C370.611 497.987 372.287 483.393 372.287 483.393C372.287 477.499 372.184 470.316 371.99 462.506C371.249 427.926 369.186 381.204 369.186 381.204C312.852 381.204 299.125 431.689 299.125 431.689C299.125 431.689 303.184 464.365 307.368 499.241C311.313 532.453 315.372 567.717 315.976 578.548Z" fill="#FFC9A4"/>
<path d="M196.651 578.548H244.969C249.833 568.154 253.855 557.387 256.998 546.35C258.081 542.554 259.198 538.541 260.338 534.356C263.599 522.476 267.054 509.376 270.223 497.211C276.574 472.824 281.704 452.165 281.704 452.165L299.103 431.643C299.103 392.4 243.236 360.955 243.236 360.955C243.236 360.955 229.726 369.973 216.364 404.656C211.459 417.661 207.478 430.995 204.45 444.56C190.939 503.744 196.97 555.255 196.651 578.548Z" fill="#FFC9A4"/>
<path fill-rule="evenodd" clip-rule="evenodd" d="M196.651 578.547H200.55C200.961 566.451 203.104 552.484 210.162 545.427C223.843 531.745 259.05 534.265 260.327 534.356C263.588 522.476 267.042 509.376 270.212 497.211L267.521 463.235L225.986 389.663L216.398 404.758C211.494 417.763 207.512 431.098 204.484 444.663C190.939 503.744 196.97 555.255 196.651 578.547Z" fill="#F2B186"/>
<path d="M275.616 144.389C276.756 147.582 282.206 153.419 287.541 158.527C293.025 163.771 298.304 168.241 298.304 168.241C298.304 168.241 323.877 199.024 326.534 197.986C329.19 196.949 336.612 185.753 336.612 185.753C336.612 185.753 309.671 157.079 309.671 154.764C309.671 152.45 318.598 117.072 318.598 117.072C318.598 117.072 313.137 77.6123 311.404 77.6123C309.892 77.767 308.411 78.1515 307.015 78.7524L278.717 99.9587C278.717 99.9587 276.562 115.077 275.547 127.858C275.012 135.314 274.795 141.984 275.616 144.389Z" fill="#FFC9A4"/>
<path fill-rule="evenodd" clip-rule="evenodd" d="M275.616 144.389C276.756 147.581 282.206 153.419 287.542 158.527L281.328 152.233L300.915 147.855L313.092 119.911L307.973 102.011L289.833 118.44L275.593 127.846C275.012 135.314 274.795 141.983 275.616 144.389Z" fill="#FDA68F"/>
<path d="M309.671 154.765C309.671 154.765 302.534 152.804 301.325 145.644C300.117 138.484 311.951 121.417 311.951 121.417V119.068C311.951 119.068 308.132 108.214 309.112 100.986L310.914 96.1631L320.822 122.956C320.822 122.956 311.404 144.082 309.671 154.765Z" fill="#F2B186"/>
<path d="M60.4633 210.71C62.2647 231.46 74.9315 245.928 74.9315 245.928C81.9774 250.922 90.8932 255.049 98.0988 257.979C105.304 260.91 110.731 262.54 110.731 262.54L118.131 270.794L134.412 288.238L141.743 262.244L118.347 244.572C118.074 240.205 117.72 236.066 117.333 232.338C116.193 220.811 114.631 213.093 114.631 213.093C109.945 210.949 97.8023 212.91 97.8023 212.91C79.0359 217.357 60.4633 210.71 60.4633 210.71Z" fill="#FFC9A4"/>
<path fill-rule="evenodd" clip-rule="evenodd" d="M225.77 541.847L224.994 566.588C224.641 570.603 224.984 574.65 226.009 578.548H299.285C331.812 565.003 365.309 547.525 365.309 547.525C386.664 479.996 376.71 398.488 374.248 381.786C371.785 365.083 355.276 348.893 343.807 337.492C332.827 326.615 323.843 319.398 323.843 319.398L242.894 315.214L243.613 322.146C243.613 322.146 213.148 388.079 207.129 409.16C197.369 443.671 197.369 508.077 197.369 508.077C197.369 479.996 211.575 457.114 211.575 457.114C222.11 480.554 225.77 541.847 225.77 541.847Z" fill="#2E2E2E"/>
<path fill-rule="evenodd" clip-rule="evenodd" d="M205.715 408.659C209.078 396.779 223.022 370.556 234.423 350.034C243.248 334.186 250.613 321.69 250.613 321.69L249.895 314.747L322.349 318.931C322.349 318.931 331.334 326.091 342.29 337.002C341.013 337.458 314.847 352.44 303.173 352.44C291.258 352.44 258.833 349.452 258.833 349.452C258.833 349.452 278.056 399.743 312.636 415.123C312.636 415.123 337.661 396.232 345.927 381.193C345.026 383.177 327.332 417.449 310.583 429.5C310.583 429.5 294.542 417.05 269.117 373.897C269.117 373.897 261.068 378.925 250.704 390.805L316.637 559.942L296.115 550.342L247.443 394.67C244.191 398.692 241.147 402.878 238.322 407.211C238.322 407.211 220.479 485.56 225.724 541.894C225.188 537.561 220.582 480.099 210.116 456.658C210.116 456.658 195.898 479.54 195.898 507.633C195.944 507.587 195.944 443.171 205.715 408.659Z" fill="#1D1D1D"/>
<path fill-rule="evenodd" clip-rule="evenodd" d="M346.703 364.775C346.703 364.775 331.505 386.689 310.583 394.624L299.125 392.8L310.583 400.78C310.583 400.78 330.479 391.078 346.703 364.775Z" fill="#1D1D1D"/>
<path fill-rule="evenodd" clip-rule="evenodd" d="M346.771 465.437L355.823 414.257L334.389 482.721L346.771 465.437Z" fill="#050505"/>
<path d="M211.621 126.034C211.621 126.034 216.968 152.257 214.836 169.929C214.836 169.929 246.281 198.934 259.403 198.934C272.526 198.934 265.811 173.908 265.811 173.908C265.811 173.908 252.266 169.347 246.588 163.647C240.911 157.946 239.577 141.905 239.577 141.905L211.621 126.034Z" fill="#FFC9A4"/>
<path fill-rule="evenodd" clip-rule="evenodd" d="M98.0988 260.123C105.293 263.019 110.731 264.684 110.731 264.684L118.131 272.95L122.007 249.474L118.325 246.693C118.051 242.314 117.697 238.187 117.31 234.448L103.628 226.011L98.0988 260.123Z" fill="#F2B186"/>
<path fill-rule="evenodd" clip-rule="evenodd" d="M285.136 171.034L286.869 189.641L287.279 194.11L288.1 202.844L320.639 240.832C320.639 240.832 323.421 242.771 327.571 245.621C337.969 252.724 357.009 265.539 363.223 268.309C371.922 272.209 386.983 275.082 386.983 275.082L329.555 201.92C324.288 199.526 317.344 195.079 310.561 190.393C297.632 181.295 285.136 171.034 285.136 171.034Z" fill="#1D1D1D"/>
<path fill-rule="evenodd" clip-rule="evenodd" d="M314.494 187.783C314.768 188.148 317.492 191.773 321.335 197.041C330.33 209.297 345.437 230.389 349.689 239.693C349.689 239.693 361.82 261.207 377.383 271.285C377.383 271.285 392.341 278.001 399.524 278.001C402.261 278.001 409.192 251.174 397.951 229.808C396.666 227.311 395.138 224.948 393.39 222.75C393.39 222.75 341.424 192.514 330.433 178.548C330.433 178.548 330.649 190.998 327.742 193.894C324.835 196.79 315.075 188.262 314.494 187.783Z" fill="#161616"/>
<path fill-rule="evenodd" clip-rule="evenodd" d="M22.3603 189.525H16.6597C16.6597 189.525 42.4721 230.467 52.3798 264.363H102.967C102.967 264.363 85.4889 221.335 60.4632 191.612L22.3603 189.525Z" fill="#161616"/>
<path fill-rule="evenodd" clip-rule="evenodd" d="M71.7505 185.855C71.7505 185.855 103.047 220.196 114.71 244.617L55.766 246.544C55.766 246.544 34.1265 200.221 22.3604 184.578L71.7505 185.855Z" fill="white"/>
<path fill-rule="evenodd" clip-rule="evenodd" d="M107.915 242.975L112.875 246.544L100.904 261.217L55.766 258.618L22.3947 192.662V184.578L58.9014 246.544L107.915 242.975Z" fill="#E5E5E5"/>
<path fill-rule="evenodd" clip-rule="evenodd" d="M22.3604 184.578V192.696L55.766 258.618L100.903 261.217L112.875 246.544L58.1489 248.824C58.1489 248.824 39.4623 206.377 22.3604 184.578Z" fill="#ADADAD"/>
<g style="mix-blend-mode:multiply" opacity="0.3">
<path fill-rule="evenodd" clip-rule="evenodd" d="M58.1146 248.848L55.7659 258.619L100.903 261.218L112.875 246.545L58.1146 248.848Z" fill="#592963"/>
</g>
<path d="M31.9181 189.94L31.9061 190.453L72.3808 191.4L72.3928 190.887L31.9181 189.94Z" fill="#0A0A0A"/>
<path d="M79.0359 198.454L79.0473 197.941L38.5729 196.573L38.5501 197.086L79.0359 198.454Z" fill="#0A0A0A"/>
<path d="M103.674 235.291H64.7616V235.804H103.674V235.291Z" fill="#0A0A0A"/>
<path fill-rule="evenodd" clip-rule="evenodd" d="M107.117 231.21L80.6663 212.865L75.6155 203.676L92.2727 210.425C92.2727 210.425 104.084 226.284 107.117 231.21Z" fill="#E5E5E5"/>
<path d="M114.631 215.215C113.459 210.446 110.828 206.162 107.106 202.959C106.616 202.468 95.8642 204.03 95.8642 204.03L75.6156 195.719C75.6156 195.719 74.0536 200.804 75.6156 203.643C77.7009 206.593 80.7419 208.732 84.2235 209.697C84.2235 209.697 93.3445 209.503 98.9881 212.536L97.848 214.987C97.848 214.987 116.295 222.648 114.631 215.215Z" fill="#F2B186"/>
<path fill-rule="evenodd" clip-rule="evenodd" d="M239.896 144.424L241.709 153.602C241.709 153.602 221.107 151.026 211.997 127.801L211.655 126.034C211.655 126.034 220.821 137.002 239.896 144.424Z" fill="#FDA68F"/>
<path fill-rule="evenodd" clip-rule="evenodd" d="M124.162 279.345C125.234 280.884 127.674 284.316 131.003 288.888C145.152 308.156 175.764 347.354 190.734 347.354C193.915 347.354 206.798 330.867 210.116 309.114C213.434 287.36 210.116 257.546 210.116 257.546L213.912 250.512C213.912 250.512 215.748 252.689 218.712 256.6C225.872 266.074 229.213 277.361 239.235 301.167L242.849 315.271L256.929 322.408C256.929 322.408 276.631 337.058 298.601 334.755C320.571 332.452 322.863 316.684 322.863 316.684C322.863 316.684 324.698 306.423 323.558 305.226C322.418 304.029 314.528 304.428 314.528 304.428C314.893 303.368 325.77 272.162 327.503 245.7C327.904 240.439 327.801 235.151 327.195 229.91L306.673 212.34L302.511 208.794L301.303 206.879L291.874 191.989L285.033 171.113C285.033 171.113 269.072 170.338 256.941 167.533C253.39 166.848 249.961 165.633 246.771 163.931L246.862 164.033L257.67 171.398C261.654 178.336 263.312 186.367 262.402 194.315H262.311C260.395 193.779 229.635 184.909 214.79 170.042L215.281 162.768V162.597L210.298 167.625C205.51 172.493 197.848 180.246 190.209 187.885C185.067 193.027 181.556 196.436 179.116 198.91C175.638 202.455 174.362 204.097 173.563 206.377C172.207 210.22 176.459 238.13 177.554 248.208C178.648 258.287 175.57 279.824 175.57 279.824C175.57 279.824 172.355 277.988 170.519 279.824C170.519 279.824 147.819 269.563 136.224 260.727C134.863 259.718 133.568 258.621 132.348 257.443C132.348 257.443 135.324 281.033 132.348 283.997C130.091 286.186 125.838 281.386 124.162 279.345Z" fill="#2E2E2E"/>
<path fill-rule="evenodd" clip-rule="evenodd" d="M207.551 172.174C207.551 172.174 234.549 197.986 262.869 201.634L262.482 194.166H262.39C260.623 193.562 232.132 183.655 215.326 166.804V162.574V159.153L210.344 167.419L207.551 172.174Z" fill="url(#paint2_linear_427_2075)"/>
<path fill-rule="evenodd" clip-rule="evenodd" d="M245.106 161.73C245.616 162.486 246.201 163.189 246.85 163.828L246.942 163.931C249.012 165.872 251.36 167.493 253.908 168.742C261.832 179.106 262.482 194.213 262.482 194.213L272.56 200.369C272.56 179.323 257.043 167.454 257.043 167.454L245.106 161.73Z" fill="url(#paint3_linear_427_2075)"/>
<path fill-rule="evenodd" clip-rule="evenodd" d="M330.49 178.559L336.065 184.259C336.065 184.259 332.018 198.545 330.216 200.358C328.415 202.171 320.046 195.307 320.046 195.307L314.471 187.816C314.471 187.816 322.007 193.05 326.431 193.05C326.431 193.004 330.49 189.207 330.49 178.559Z" fill="url(#paint4_linear_427_2075)"/>
<path d="M270.041 135.279L302.785 142.485L315.908 74.3285L286.23 69.6426L270.041 135.279Z" fill="#050505"/>
<path d="M281.012 112.952L281.662 109.072L283.688 109.411L283.594 109.971L282.016 109.707L281.853 110.677L283.139 110.892L283.045 111.452L281.759 111.237L281.553 112.467L283.184 112.74L283.09 113.3L281.012 112.952Z" fill="white"/>
<path d="M283.618 113.388L284.268 109.509L285.272 109.677C285.731 109.754 286.073 109.997 286.3 110.408C286.53 110.815 286.597 111.304 286.501 111.877C286.405 112.45 286.182 112.893 285.831 113.206C285.483 113.517 285.081 113.633 284.622 113.557L283.618 113.388ZM284.159 112.904L284.675 112.99C285.031 113.05 285.329 112.972 285.571 112.758C285.814 112.544 285.97 112.225 286.041 111.8C286.113 111.375 286.069 111.022 285.91 110.741C285.75 110.46 285.493 110.289 285.138 110.23L284.621 110.143L284.159 112.904Z" fill="white"/>
<path d="M288.863 113.885C288.591 114.144 288.279 114.243 287.926 114.184C287.574 114.125 287.311 113.929 287.138 113.596C286.969 113.26 286.93 112.819 287.022 112.272L287.397 110.033L287.844 110.108L287.465 112.369C287.405 112.731 287.426 113.02 287.529 113.235C287.633 113.449 287.797 113.576 288.022 113.613C288.25 113.652 288.448 113.586 288.615 113.417C288.783 113.247 288.897 112.981 288.958 112.619L289.337 110.358L289.784 110.433L289.409 112.672C289.318 113.219 289.136 113.623 288.863 113.885Z" fill="white"/>
<path d="M291.169 114.728C290.749 114.657 290.428 114.41 290.206 113.985C289.988 113.557 289.928 113.051 290.025 112.468C290.123 111.884 290.346 111.427 290.694 111.098C291.042 110.765 291.431 110.635 291.859 110.707C292.198 110.763 292.473 110.923 292.682 111.186L292.581 111.79C292.364 111.503 292.101 111.334 291.792 111.282C291.48 111.23 291.201 111.322 290.956 111.558C290.713 111.791 290.556 112.122 290.484 112.55C290.412 112.979 290.452 113.342 290.602 113.641C290.756 113.937 290.977 114.109 291.265 114.157C291.555 114.205 291.802 114.135 292.007 113.945L292.243 112.532L292.691 112.607L292.412 114.269C292.267 114.435 292.083 114.564 291.858 114.655C291.635 114.743 291.405 114.767 291.169 114.728Z" fill="white"/>
<path d="M292.688 114.908L294.586 111.215L295.017 111.287L295.608 115.397L295.128 115.317L294.98 114.301L293.63 114.074L293.163 114.988L292.688 114.908ZM293.875 113.563L294.916 113.737L294.668 112.02L293.875 113.563Z" fill="white"/>
<path d="M296.075 111.487L298.406 111.877L298.312 112.437L297.369 112.279L296.812 115.599L296.365 115.524L296.921 112.204L295.982 112.047L296.075 111.487Z" fill="white"/>
<path d="M298.243 115.839L298.893 111.959L300.918 112.298L300.824 112.858L299.246 112.594L299.084 113.564L300.369 113.779L300.275 114.339L298.99 114.123L298.784 115.354L300.415 115.627L300.321 116.187L298.243 115.839Z" fill="white"/>
<path d="M300.848 116.275L301.498 112.396L301.95 112.471L301.394 115.791L302.907 116.045L302.813 116.604L300.848 116.275Z" fill="white"/>
<path d="M303.683 116.75L303.978 114.993L303.231 112.686L303.752 112.773L304.303 114.478L305.379 113.046L305.883 113.13L304.428 115.052L304.131 116.825L303.683 116.75Z" fill="white"/>
<path d="M330.49 178.559C330.49 178.559 330.148 190.587 324.162 191.613C320.571 192.217 314.471 187.771 314.471 187.771C314.471 187.771 321.107 193.004 326.431 193.004C326.431 193.004 330.194 193.004 330.49 178.559Z" fill="#A64A4C"/>
<path fill-rule="evenodd" clip-rule="evenodd" d="M179.127 198.922L207.551 201.681L257.716 217.7L290.996 225.943C273.518 220.459 250.852 205.648 250.852 205.648L288.089 202.844L302.523 208.715L287.553 194.304L287.302 194.11L275.604 184.59L286.892 189.641L291.92 191.921L301.348 206.811L306.718 212.273L310.583 190.416C297.654 181.375 285.159 171.034 285.159 171.034C285.159 171.034 269.197 170.259 257.066 167.454L245.152 161.754C245.662 162.509 246.246 163.212 246.896 163.852L246.987 163.954C249.058 165.895 251.405 167.517 253.954 168.765C261.877 179.129 262.527 194.236 262.527 194.236H262.436C260.669 193.632 232.177 183.724 215.372 166.873V162.643V159.223L210.389 167.489C205.601 172.357 197.939 180.11 190.301 187.749C185.159 192.89 181.647 196.299 179.207 198.774L179.127 198.922Z" fill="#1D1D1D"/>
<path fill-rule="evenodd" clip-rule="evenodd" d="M249.678 309.526C255.145 314.087 261.121 318.001 267.487 321.189C267.487 321.189 255.436 318.145 247.33 312.068L256.952 322.386C256.952 322.386 276.653 337.037 298.624 334.734C320.594 332.431 322.885 316.663 322.885 316.663C322.885 316.663 324.721 306.402 323.581 305.205C323.581 305.205 315.098 318.647 307.175 323.071C299.251 327.494 284.121 326.742 284.121 326.742C284.121 326.742 300.607 321.862 303.811 319.901C307.015 317.94 314.597 304.43 314.597 304.43C315.03 303.153 330.889 257.685 327.264 229.911L303.139 272.962L312.613 246.42L298.27 273.122L252.665 248.347L261.672 280.088L247.421 251.129V260.945L218.758 240.583L213.958 250.422C226.862 266.416 237.812 283.892 246.577 302.48C247.626 304.806 248.663 307.154 249.678 309.526Z" fill="#1D1D1D"/>
<path fill-rule="evenodd" clip-rule="evenodd" d="M124.162 279.345C125.234 280.884 127.674 284.316 131.003 288.888C133.397 289.344 135.563 288.888 136.281 286.448C138.163 279.892 136.281 260.659 136.281 260.659C134.92 259.649 133.625 258.552 132.405 257.375C132.405 257.375 135.381 280.964 132.405 283.928C130.091 286.186 125.838 281.386 124.162 279.345Z" fill="url(#paint5_linear_427_2075)"/>
<path fill-rule="evenodd" clip-rule="evenodd" d="M124.162 279.346C125.234 280.885 127.674 284.317 131.003 288.889C145.152 308.157 175.764 347.354 190.734 347.354C193.915 347.354 206.798 330.868 210.116 309.114C213.434 287.361 210.116 257.547 210.116 257.547L213.912 250.512C213.912 250.512 215.748 252.69 218.712 256.6V240.582L207.573 257.113C207.573 257.113 199.695 283.918 186.891 292.013C186.891 292.013 203.207 260.351 205.133 237.024C204.484 239.658 193.801 281.763 181.396 288.33C181.396 288.33 177.793 281.079 175.604 279.676C172.503 277.681 170.599 279.676 170.599 279.676C171.591 280.543 187.61 295.022 191.064 314.644L168.353 308.772C168.353 308.772 145.494 289.995 136.304 260.602L132.428 257.319C132.428 257.319 135.404 280.908 132.428 283.872C130.091 286.186 125.838 281.387 124.162 279.346Z" fill="#1D1D1D"/>
<path fill-rule="evenodd" clip-rule="evenodd" d="M321.38 197.041C330.376 209.297 345.483 230.39 349.735 239.693C349.735 239.693 361.866 261.207 377.429 271.286C377.429 271.286 392.387 278.001 399.57 278.001C402.306 278.001 409.238 251.174 397.997 229.808C403.629 250.33 395.511 262.587 395.511 262.587C373.222 259.657 343.259 224.176 342.336 223.07L353.84 229.831C340.329 220.892 323.353 197.668 323.353 197.668L321.38 197.041Z" fill="#1C1C1C"/>
<path style="mix-blend-mode:multiply" opacity="0.5" fill-rule="evenodd" clip-rule="evenodd" d="M130.136 335.689C130.133 335.637 130.133 335.584 130.136 335.531C130.147 335.583 130.147 335.637 130.136 335.689Z" fill="url(#paint6_linear_427_2075)"/>
<path d="M165.788 31.0618C165.788 31.0618 153.68 68.2184 140.443 67.1239C140.443 67.1239 137.547 58.3335 134.07 52.9293C130.592 47.5252 126.214 36.7738 126.91 34.7672C127.605 32.7606 164.876 13.5381 164.876 13.5381C164.876 13.5381 168.159 24.5631 165.788 31.0618Z" fill="white"/>
<path d="M161.854 12.3061C161.854 12.3061 124.458 30.7305 126.91 34.7666C129.361 38.8026 150.59 29.636 159.586 20.3782C168.581 11.1204 161.854 12.3061 161.854 12.3061Z" fill="#ADADAD"/>
<path d="M154.136 46.7607C154.136 46.7607 134.286 99.2064 134.663 114.621L148.8 114.769L161.079 57.1929L154.136 46.7607Z" fill="white"/>
<path d="M133.773 39.2023C133.773 39.2023 144.376 38.2673 152.539 31.9967C152.539 31.9967 145.345 45.1651 146.326 47.6962C147.306 50.2272 151.012 48.0952 151.012 48.0952L148.811 61.5031L146.018 69.6321C146.018 69.6321 145.494 84.7273 153.737 91.6251C161.98 98.5228 169.288 66.4512 169.288 66.4512C169.288 66.4512 170.371 19.7974 164.83 13.5381C164.876 13.5381 151.251 33.3078 133.773 39.2023Z" fill="#E5E5E5"/>
<path d="M296.879 34.6865C296.879 34.6865 316.387 50.9447 291.6 84.3047L281.773 46.6806L296.879 34.6865Z" fill="#0A0A0A"/>
<path d="M232.2 145.86C219.009 141.117 206.855 128.849 197.324 118.109C185.614 104.907 176.55 99.548 176.277 74.7845C176.185 59.8122 180.064 45.0831 187.518 32.0983C206.581 -2.10539 274.054 15.2701 286.812 33.5348C287.375 34.2975 287.846 35.1241 288.214 35.9975C288.214 35.9975 292.205 46.9427 291.52 57.7397C290.836 68.5366 285.979 86.562 286.242 96.4354C286.277 97.5394 286.449 98.6347 286.755 99.6962L288.305 108.327C291.805 127.652 273.666 147.627 273.666 147.627C272.093 150.101 269.847 152.974 263.234 153.567C260.415 153.564 257.606 153.227 254.866 152.564C247.198 150.727 239.633 148.489 232.2 145.86Z" fill="#FFC9A4"/>
<path d="M243.749 149.61C243.749 149.61 226.442 146.372 215.497 136.487C209.797 131.486 204.424 126.124 199.41 120.434C199.41 120.434 200.106 94.3598 204.928 82.5938C204.928 82.5938 199.832 133.329 243.749 149.61Z" fill="#F2B186"/>
<path d="M203.742 125.076L197.757 118.965L202.146 80.1098L209.569 63.7034L216.797 54.343L216.911 44.7432L244.16 47.4339L256.77 58.9719H270.029L286.379 55.2893L293.903 53.7501L290.13 66.8957L270.371 87.2469L271.785 82.5382L257.476 90.0858L259.757 80.4974L254.318 86.3348C254.318 86.3348 254.877 68.6401 239.873 65.0602C224.869 61.4802 229.714 65.3224 229.714 65.3224C226.777 70.3893 223.565 75.2916 220.092 80.0072C214.676 87.2241 200.117 122.009 203.742 125.076Z" fill="#F2B186"/>
<path d="M195.465 97.1085C195.465 97.1085 187.678 82.9367 176.699 85.4564C176.699 85.4564 170.782 88.2269 170.086 93.5399C169.311 99.5825 175.787 110.836 184.611 115.134C193.436 119.432 197.21 115.613 198.658 113.298C200.106 110.984 198.874 100.084 195.465 97.1085Z" fill="url(#paint7_linear_427_2075)"/>
<path style="mix-blend-mode:multiply" opacity="0.6" d="M173.335 92.7416C173.335 92.7416 176.676 89.9255 182.012 92.1487C187.347 94.372 194.2 103.915 194.884 107.506C194.884 107.506 189.947 105.408 188.123 106.001C186.299 106.594 184.851 108.715 180.609 107.21C176.368 105.705 170.747 98.9439 173.335 92.7416Z" fill="url(#paint8_linear_427_2075)"/>
<path style="mix-blend-mode:multiply" opacity="0.6" d="M181.978 92.1484C181.978 92.1484 179.766 92.8097 180.039 98.9208C180.067 100.635 180.515 102.316 181.344 103.817C182.173 105.318 183.357 106.592 184.794 107.529C184.794 107.529 181.886 104.177 181.578 100.688C181.271 97.1992 184.474 93.6648 184.474 93.6648L181.978 92.1484Z" fill="url(#paint9_linear_427_2075)"/>
<path style="mix-blend-mode:multiply" opacity="0.6" d="M187.085 95.7852C187.085 95.7852 184.703 99.844 186.766 102.854C188.83 105.864 194.416 106.046 194.416 106.046C192.533 102.258 190.059 98.7943 187.085 95.7852Z" fill="url(#paint10_linear_427_2075)"/>
<path opacity="0.18" d="M171.796 101.487C171.796 101.487 187.94 103.334 194.656 95.7866C194.656 95.7866 188.066 83.5759 178.181 85.2291C168.296 86.8823 168.9 96.4593 171.796 101.487Z" fill="black"/>
<path style="mix-blend-mode:multiply" opacity="0.6" d="M174.943 106.731C174.943 106.731 180.461 113.994 188.624 114.712C196.788 115.431 199.182 110.585 199.182 110.585C199.148 111.766 198.814 112.92 198.213 113.937C196.206 117.745 185.261 120.379 174.943 106.731Z" fill="url(#paint11_linear_427_2075)"/>
<path d="M192.649 110.722C192.649 110.722 193.915 114.952 190.483 130.469C187.051 145.986 161.113 171.274 155.264 183.257C149.416 195.24 155.264 216.412 162.481 226.228C162.481 226.228 157.453 214.987 159.813 205.877C162.173 196.767 166.973 173.748 182.536 152.77C191.781 140.451 196.333 125.24 195.374 109.867L192.649 110.722Z" fill="#0A0A0A"/>
<path d="M252.346 79.9145C252.346 79.9145 245.824 78.25 240.124 77.03C234.423 75.8101 231.003 76.0609 229.612 76.3459C226.271 77.1322 223.239 78.8943 220.901 81.4081C220.901 81.4081 224.755 78.0789 229.11 77.9877C233.466 77.8965 245.403 82.3544 247.227 82.7078C249.051 83.0613 252.346 79.9145 252.346 79.9145Z" fill="#161616"/>
<path d="M285.729 84.5327C285.059 83.3599 284.027 82.4359 282.787 81.899C279.469 80.9299 273.336 82.7883 270.554 90.0623C270.554 90.0623 271.192 84.2135 278.022 80.3028C282.856 77.5323 285.797 79.4021 285.797 79.4021C286.298 81.0793 286.274 82.8695 285.729 84.5327Z" fill="#161616"/>
<path d="M199.376 62.7229C199.376 62.7229 192.946 86.5287 194.222 95.7865C195.128 101.809 196.621 107.727 198.68 113.458C198.68 113.458 188.704 104.691 184.999 95.3532C181.293 86.0156 199.421 48.46 199.421 48.46L199.376 62.7229Z" fill="url(#paint12_linear_427_2075)"/>
<path d="M265.583 19.2154C265.583 19.2154 257.705 17.357 246.303 11.2346C234.902 5.11213 204.119 -0.0754287 191.144 6.6741C178.17 13.4236 175.41 22.1342 173.153 23.4339C170.896 24.7336 166.312 25.8282 164.18 28.1426C162.048 30.4571 159.62 37.332 159.46 44.5832C159.46 44.5832 155.949 47.4563 155.139 49.6567C154.33 51.8572 152.072 65.9263 155.88 78.9123C155.88 78.9123 157.784 98.5452 162.527 107.279C167.27 116.012 189.89 116.833 199.706 113.583C199.706 113.583 194.006 92.4797 199.627 77.8634C199.627 77.8634 201.633 54.4224 211.826 43.272C222.019 32.1216 255.926 19.3979 265.583 19.2154Z" fill="#161616"/>
<path style="mix-blend-mode:multiply" opacity="0.6" d="M251.035 19.1007C248.251 14.9722 244.152 11.9065 239.406 10.4015C231.083 7.52842 211.108 5.03155 198.988 6.00066C191.601 6.71828 184.72 10.0738 179.606 15.4523C185.114 9.90968 192.524 6.66934 200.334 6.3883C213.263 6.09187 229.247 9.72886 235.826 12.5678C242.404 15.4067 244.114 20.218 244.114 20.218L251.035 19.1007Z" fill="url(#paint13_linear_427_2075)"/>
<path style="mix-blend-mode:multiply" opacity="0.6" d="M242.564 20.5381C239.945 16.8071 235.995 14.2237 231.527 13.3211C223.638 11.4627 208.793 15.2251 195.385 13.7201C191.305 13.2014 187.159 13.772 183.371 15.374C179.582 16.976 176.285 19.5523 173.814 22.8411C176.298 20.2206 179.338 18.1896 182.71 16.8974C186.081 15.6051 189.7 15.0844 193.299 15.3733C205.84 16.2284 220.89 13.0132 227.993 13.7657C235.096 14.5182 240.796 20.9143 240.796 20.9143L242.564 20.5381Z" fill="url(#paint14_linear_427_2075)"/>
<path d="M210.481 38.6901C210.481 38.6901 196.891 41.4036 186.88 37.436C176.87 33.4683 174.635 21.9873 174.635 21.9873L173.153 23.4239C173.153 23.4239 178.261 42.2017 192.934 48.6548C192.934 48.6548 172.823 41.8938 171.899 24.0281C171.899 24.0281 172.526 47.1498 179.458 54.8114C183.895 59.5463 189.597 62.9096 195.887 64.5025C195.887 64.5025 189.719 72.9052 182.662 71.7423C175.604 70.5793 159.586 48.5864 161.57 33.0807C161.57 33.0807 157.739 68.2307 196.56 80.7492C196.56 80.7492 192.923 84.5572 188.442 83.6565C183.962 82.7558 162.846 67.6264 159.46 44.6073L157.032 46.8876C157.032 46.8876 165.013 60.9909 169.049 69.0744C171.421 73.5269 174.683 77.4439 178.634 80.5821C182.584 83.7202 187.137 86.0125 192.011 87.3163C192.011 87.3163 186.629 88.6503 177.577 85.629C168.524 82.6076 159.996 54.743 159.996 54.743C159.996 54.743 167.532 82.8129 177.098 87.2023C182.752 89.8258 188.954 91.0498 195.18 90.7709C195.18 90.7709 196.685 98.2615 195.351 100.462C194.017 102.662 173.621 99.3218 165.047 91.7628C156.473 84.2038 153.782 66.2355 153.782 66.2355C154.077 70.5191 154.764 74.7668 155.835 78.925L156.507 84.3976C156.507 84.3976 169.322 106.163 195.123 104.566C195.123 104.566 186.835 111.407 176.46 110.552C166.084 109.697 158.035 93.0968 158.035 93.0968C158.035 93.0968 159.802 104.84 164.26 109.503C168.718 114.166 189.411 117.484 199.684 113.573C199.684 113.573 195.614 97.3038 201.052 76.5878C206.49 55.8718 210.481 38.6901 210.481 38.6901Z" fill="#474747"/>
<path d="M200.778 64.8552C200.778 64.8552 187.097 64.9578 173.552 52.006C160.007 39.0542 164.18 28.1318 164.18 28.1318C163.11 29.6678 162.233 31.3297 161.569 33.08C160.84 35.3602 166.837 66.5198 182.593 72.9843C198.35 79.4488 200.778 64.8552 200.778 64.8552Z" fill="#0A0A0A"/>
<path d="M192.011 87.3601C192.011 87.3601 180.609 89.7772 173.438 82.6742C166.267 75.5712 158.856 50.1123 158.856 50.1123C158.856 50.1123 168.296 69.996 177.235 78.0681C179.753 80.4109 182.789 82.1264 186.096 83.0753C189.402 84.0243 192.885 84.1798 196.263 83.5293C196.098 84.5574 195.586 85.498 194.813 86.1949C194.039 86.8918 193.05 87.303 192.011 87.3601Z" fill="#0A0A0A"/>
<path d="M197.381 103.231C197.381 103.231 180.894 112.056 169.562 106.651C158.229 101.247 156.553 84.3848 156.553 84.3848C156.553 84.3848 158.525 103.22 166.814 109.844C175.103 116.468 193.994 112.888 198.27 106.606L197.381 103.231Z" fill="#0A0A0A"/>
<path d="M250.624 13.4004C249.299 13.8489 247.925 14.136 246.531 14.2555C244.459 14.52 242.404 14.9006 240.375 15.3956L241.971 16.9462L238.984 16.7524L237.41 17.8925C237.41 17.8925 219.168 18.4625 210.538 23.0116C201.907 27.5607 197.552 39.304 197.552 39.304C197.552 39.304 188.146 40.0679 181.487 34.0366C181.487 34.0366 184.224 38.8821 193.094 43.1576C193.094 43.1576 193.47 46.863 191.076 47.7181C191.076 47.7181 183.79 46.0421 176.813 37.1263C176.813 37.1263 178.512 48.3566 194.359 57.6486C194.518 58.3175 194.461 59.0195 194.197 59.6543C193.933 60.2891 193.475 60.8241 192.889 61.1829C190.756 62.8361 181.271 58.5265 176.38 49.5879C176.38 49.5879 181.932 61.0917 194.165 63.885C194.165 63.885 185.786 73.006 185.489 74.0207C185.193 75.0354 188.909 76.9166 189.001 77.8059C189.092 78.6952 184.064 81.6595 183.768 82.2866C183.471 82.9137 184.144 87.611 184.144 87.611C181.677 87.4613 179.277 86.7535 177.125 85.5408C174.972 84.3281 173.123 82.6423 171.716 80.6106C171.716 80.6106 174.909 87.6338 185.865 89.0247L186.595 90.1649C186.595 90.1649 182.354 97.7581 181.476 99.4113C180.598 101.064 184.144 102.832 184.189 103.801C184.235 104.77 180.245 111.782 180.769 113.355C181.293 114.928 188.864 115.327 188.864 115.327L194.086 114.404C194.086 114.404 197.802 81.0553 205.487 59.5868C213.171 38.1183 254.786 22.0197 254.786 22.0197L269.676 19.5799C269.676 19.5799 258.126 18.9642 250.624 13.4004Z" fill="#0A0A0A"/>
<path d="M271.454 84.8288C272.287 84.3613 279.002 80.4507 284.497 70.7939C283.802 71.5806 272.424 84.0535 258.605 88.728C259.141 88.2834 268.296 80.884 270.383 70.8281C270.383 70.8281 262.733 78.8774 255.333 83.6431C255.333 83.6431 259.723 69.8248 251.069 63.3831C249.608 62.3738 247.961 61.6647 246.224 61.2967C238.465 59.411 230.588 58.0549 222.646 57.2378C222.646 57.2378 229.931 66.2448 216.637 78.1705C203.8 89.6971 199.878 148.003 205.624 181.716C205.624 181.716 187.382 116.262 195.773 100.232C201.212 89.8453 202.454 61.0344 204.598 52.0617L204.712 51.6626C205.829 46.2186 208.308 41.1466 211.917 36.9208C214.15 34.5437 216.72 32.5077 219.545 30.8782L219.693 30.7984C220.388 30.3879 221.095 29.9889 221.825 29.6013C235.415 22.2361 255.709 17.8238 264.192 19.0323C264.192 19.0323 268.285 19.4428 273.769 20.3777H273.986C280.519 21.3806 286.941 23.0109 293.162 25.246C294.124 25.6203 294.978 26.2275 295.648 27.0132C296.108 27.5338 296.492 28.1173 296.788 28.7462C301.212 38.4258 308.668 73.8608 271.454 84.8288Z" fill="#161616"/>
<path d="M214.243 34.5829C214.243 34.5829 238.368 32.1545 252.597 39.9073C266.825 47.6601 265.013 56.5531 265.013 56.5531C265.013 56.5531 263.394 44.1486 247.911 42.3814C225.758 39.8389 217.401 35.9625 211.165 37.7069L214.243 34.5829Z" fill="#0A0A0A"/>
<path style="mix-blend-mode:multiply" opacity="0.6" d="M272.617 57.6266C272.617 57.6266 281.351 45.165 281.647 36.8535C281.647 36.8535 282.479 62.7685 261.946 71.8097C261.946 71.8439 271.147 64.2165 272.617 57.6266Z" fill="url(#paint15_linear_427_2075)"/>
<path d="M226.876 27.129C226.876 27.129 255.937 17.5862 273.062 23.6402C290.187 29.6943 276.608 51.9723 276.608 51.9723C276.608 51.9723 269.995 62.9745 263.987 65.3687C263.987 65.3687 275.092 46.3515 266.05 34.289C258.833 24.7233 222.042 29.6601 222.042 29.6601L226.876 27.129Z" fill="#0A0A0A"/>
<path d="M249.575 44.3778L253.076 44.1155C257.727 44.2977 262.352 43.3305 266.54 41.2994L265.571 38.1413L267.658 37.0012C267.658 37.0012 279.15 35.861 281.681 36.2487L289.48 37.2634L288.932 32.4065L292.113 34.3561C292.113 34.3561 296.275 34.3561 296.731 28.8379C298.037 32.102 298.257 35.7001 297.358 39.099C297.358 39.099 296.708 34.1395 295.91 33.957C295.112 33.7746 293.162 35.576 291.977 35.6672C290.791 35.7584 290.209 35.8382 290.209 35.8382C289.992 37.6222 289.568 39.3746 288.944 41.06C288.944 41.06 285.98 38.1527 283.813 37.537L281.647 36.91L281.567 38.1755C281.567 38.1755 274.225 36.5337 267.886 38.3123L266.814 42.3483C266.814 42.3483 257.75 44.298 255.287 47.1939C255.265 47.1369 252.072 45.4153 249.575 44.3778Z" fill="#0A0A0A"/>
<g style="mix-blend-mode:multiply" opacity="0.3">
<path d="M272.617 57.625C277.37 51.7442 280.496 44.7187 281.681 37.251C281.225 44.1798 279.594 50.9806 276.859 57.3627C272.526 66.6433 262.322 71.4889 262.322 71.4889C266.735 67.6844 270.251 62.9497 272.617 57.625Z" fill="#BB0B43"/>
</g>
<path d="M212.487 40.5245C212.487 40.5245 218.655 45.598 216.318 58.7094C214.672 66.9081 210.689 74.4553 204.849 80.4402C204.849 80.4402 214.551 74.3063 220.73 59.918C226.91 45.5296 211.199 37.6514 211.199 37.6514L212.487 40.5245Z" fill="#0A0A0A"/>
<path d="M159.46 44.5713C154.653 46.5829 150.365 49.6585 146.919 53.5669C140.876 60.2594 149.051 80.5764 157.579 89.3325L156.553 84.3844C156.553 84.3844 142.176 61.5135 147.877 53.9545C153.577 46.3955 157.853 47.1138 157.853 47.1138L159.46 44.5713Z" fill="#0A0A0A"/>
<path d="M252.665 100.802C252.665 100.802 247.386 106.411 234.925 102.204C222.463 97.9974 225.713 93.5053 228.939 92.8098C233.864 91.7495 241.948 89.2298 249.131 92.3652C258.765 101.247 255.823 101.258 252.665 100.802Z" fill="#F2B186"/>
<path d="M271.238 100.426C275.43 100.986 279.679 99.9483 283.141 97.5189C289.833 89.7661 284.053 89.4468 281.795 89.5381C278.375 89.6749 274.441 90.8834 271.112 96.1622C266.711 103.151 268.798 98.0662 271.238 100.426Z" fill="#F2B186"/>
<path d="M250.385 97.7129C250.385 97.7129 254.079 97.9979 255.025 100.107C253.625 100.56 252.124 100.596 250.704 100.21L250.385 97.7129Z" fill="#D36E8A"/>
<path d="M252.038 99.7773C252.038 99.7773 251.867 96.0263 245.038 94.909C241.176 94.1888 237.192 94.4994 233.488 95.8097C233.488 95.8097 239.987 103.916 252.038 99.7773Z" fill="url(#paint16_linear_427_2075)"/>
<path d="M244.411 97.3831C244.314 98.1016 244.008 98.7756 243.53 99.3207C243.052 99.8658 242.423 100.258 241.724 100.447C241.024 100.637 240.284 100.615 239.596 100.386C238.908 100.157 238.303 99.7295 237.858 99.1579C237.412 98.5863 237.144 97.8958 237.089 97.1729C237.034 96.4501 237.193 95.727 237.547 95.0943C237.901 94.4617 238.434 93.9476 239.079 93.6165C239.724 93.2854 240.452 93.152 241.173 93.2331C241.659 93.2908 242.128 93.4443 242.555 93.6846C242.981 93.925 243.356 94.2474 243.657 94.6332C243.958 95.0191 244.179 95.4607 244.309 95.9327C244.438 96.4047 244.473 96.8977 244.411 97.3831Z" fill="#320909"/>
<path d="M244.183 97.3587C244.094 98.0252 243.81 98.6508 243.368 99.1572C242.925 99.6636 242.344 100.028 241.695 100.206C241.046 100.383 240.36 100.366 239.721 100.155C239.083 99.9445 238.52 99.5504 238.104 99.022C237.688 98.4936 237.438 97.8543 237.383 97.184C237.329 96.5138 237.473 95.8424 237.798 95.2537C238.123 94.665 238.614 94.1852 239.21 93.8741C239.806 93.5631 240.481 93.4348 241.15 93.5051C242.061 93.6193 242.89 94.0878 243.457 94.8092C244.025 95.5305 244.286 96.4466 244.183 97.3587Z" fill="#471F1F"/>
<path d="M242.985 97.3028C242.93 97.7504 242.743 98.1715 242.449 98.513C242.154 98.8545 241.765 99.1009 241.33 99.2211C240.896 99.3414 240.435 99.33 240.007 99.1885C239.579 99.047 239.202 98.7817 238.925 98.4261C238.647 98.0706 238.481 97.6407 238.448 97.191C238.415 96.7412 238.516 96.2917 238.738 95.8993C238.961 95.507 239.294 95.1893 239.697 94.9866C240.1 94.7838 240.554 94.7051 241.002 94.7603C241.299 94.797 241.586 94.8919 241.846 95.0395C242.107 95.1871 242.336 95.3846 242.52 95.6207C242.704 95.8568 242.84 96.1269 242.92 96.4155C243 96.7041 243.022 97.0056 242.985 97.3028Z" fill="#050505"/>
<path d="M242.757 97.2688C242.743 97.4001 242.678 97.5203 242.575 97.6035C242.473 97.6868 242.342 97.7263 242.21 97.7135C242.144 97.7064 242.08 97.6863 242.022 97.6543C241.964 97.6223 241.912 97.5791 241.871 97.5271C241.83 97.4751 241.799 97.4155 241.781 97.3515C241.763 97.2876 241.758 97.2208 241.766 97.1548C241.767 97.0848 241.782 97.0158 241.812 96.9522C241.841 96.8886 241.884 96.8319 241.936 96.7857C241.989 96.7395 242.051 96.7049 242.118 96.684C242.184 96.6631 242.255 96.6564 242.324 96.6644C242.394 96.6724 242.461 96.6949 242.522 96.7304C242.582 96.7659 242.634 96.8137 242.675 96.8706C242.716 96.9276 242.744 96.9924 242.758 97.061C242.773 97.1296 242.772 97.2004 242.757 97.2688Z" fill="white"/>
<path d="M253.007 98.0666C253.007 98.0666 249.005 89.5841 233.956 94.042C233.956 94.042 229.943 95.0795 227.959 93.3009C227.959 93.3009 228.791 97.1545 234.024 95.5812C237.059 94.6508 240.249 94.3369 243.407 94.6577C243.407 94.6577 248.72 94.9313 251.058 97.6904C251.058 97.7246 252.015 99.2068 253.007 98.0666Z" fill="#161616"/>
<path d="M250.704 100.199C250.704 100.199 245.163 101.864 241.515 100.507C237.866 99.1501 236.339 98.7853 233.534 95.8096L232.759 95.9008C234.868 98.482 237.765 100.3 241.006 101.077C244.248 101.853 247.655 101.545 250.704 100.199Z" fill="#161616"/>
<path d="M273.609 96.6758C272.881 96.8679 272.201 97.2093 271.612 97.6785C271.024 98.1476 270.539 98.7341 270.189 99.4007C270.637 99.5782 271.12 99.65 271.601 99.6105C272.081 99.5709 272.546 99.4211 272.959 99.1727L273.609 96.6758Z" fill="#D36E8A"/>
<path d="M272.15 98.8522C272.548 97.5867 273.249 96.4378 274.193 95.5057C275.137 94.5737 276.295 93.8868 277.565 93.5051C282.126 91.8633 284.828 93.5051 284.828 93.5051C284.828 93.5051 279.139 102.056 272.15 98.8522Z" fill="url(#paint17_linear_427_2075)"/>
<path d="M273.495 98.0667C273.917 99.8567 275.331 100.552 276.653 99.6172C277.353 99.0165 277.875 98.2356 278.162 97.3593C278.45 96.483 278.492 95.5448 278.284 94.6463C277.862 92.8449 276.448 92.1494 275.126 93.0843C274.426 93.6877 273.904 94.4706 273.617 95.3486C273.33 96.2266 273.288 97.1664 273.495 98.0667Z" fill="#320909"/>
<path d="M273.643 97.9647C274.042 99.6407 275.365 100.245 276.608 99.4126C277.261 98.8521 277.749 98.1234 278.019 97.3055C278.288 96.4876 278.328 95.6116 278.135 94.7723C277.748 93.0849 276.414 92.4921 275.183 93.313C274.53 93.8771 274.042 94.6074 273.771 95.4265C273.5 96.2455 273.456 97.1226 273.643 97.9647Z" fill="#471F1F"/>
<path d="M274.442 97.4745C274.704 98.6147 275.582 99.0023 276.38 98.4208C276.805 98.056 277.123 97.5815 277.298 97.0488C277.473 96.5161 277.498 95.9457 277.372 95.3995C277.121 94.2594 276.232 93.8718 275.445 94.4418C275.02 94.8103 274.703 95.2865 274.526 95.8202C274.35 96.354 274.32 96.9255 274.442 97.4745Z" fill="#050505"/>
<path d="M274.59 97.3591C274.647 97.5985 274.84 97.6897 275.012 97.5643C275.107 97.4856 275.178 97.3823 275.218 97.2657C275.258 97.149 275.266 97.0236 275.24 96.9031C275.183 96.6636 274.989 96.5724 274.818 96.6978C274.723 96.7766 274.651 96.8799 274.611 96.9965C274.571 97.1131 274.563 97.2386 274.59 97.3591Z" fill="white"/>
<path d="M271.842 97.2226C271.842 97.2226 276.004 88.4779 284.851 91.7728C284.851 91.7728 284.475 92.6849 286.082 90.7695C286.082 90.7695 286.162 93.5742 284.52 93.3348C282.577 93.046 280.607 92.9772 278.649 93.1296C276.462 93.6531 274.529 94.9283 273.187 96.7324C273.187 96.7324 272.287 98.2259 271.842 97.2226Z" fill="#161616"/>
<path d="M272.937 99.2073C273.886 99.5488 274.896 99.6897 275.903 99.621C276.909 99.5523 277.891 99.2755 278.785 98.8082C281.201 97.5688 283.275 95.7564 284.828 93.5295L285.136 93.29C285.136 93.29 279.276 102.958 272.937 99.2073Z" fill="#161616"/>
<path opacity="0.6" d="M277.417 131.016C277.417 131.016 272.857 126.022 267.943 128.018C267.343 128.233 266.711 128.345 266.073 128.348C264.298 128.304 262.556 128.84 261.114 129.876C254.934 134.015 251.183 132.498 250.853 132.247C251.572 133.418 252.716 134.267 254.044 134.617C255.373 134.967 256.786 134.792 257.99 134.129C261.9 132.316 271.318 132.715 272.412 132.612C277.93 132.122 278.136 130.936 277.417 131.016Z" fill="#BB0B43"/>
<path opacity="0.6" d="M279.196 129.647C279.196 129.647 275.103 136.26 268.627 137.549C265.695 138.116 262.675 138.04 259.775 137.326C256.875 136.611 254.165 135.275 251.833 133.41C251.833 133.41 253.862 135.941 257.533 133.855C261.918 132.549 266.483 131.956 271.055 132.099C271.055 132.099 277.303 131.608 279.196 129.647Z" fill="#BB0B43"/>
<path d="M249.245 130.674C251.092 132.315 253.52 134.094 256.086 133.82C258.605 133.205 261.262 132.578 263.895 132.11C266.56 131.526 269.302 131.383 272.013 131.688C273.273 131.928 274.572 131.857 275.798 131.483C277.062 131.136 278.231 130.509 279.219 129.647C278.313 130.693 277.165 131.499 275.875 131.996C274.584 132.493 273.192 132.665 271.819 132.498C269.207 132.433 266.596 132.681 264.044 133.239C261.41 133.661 258.856 134.242 256.143 134.641C253.224 134.801 250.909 132.749 249.211 130.674H249.245Z" fill="#682447"/>
<path d="M260.737 134.549C261.617 134.451 262.508 134.524 263.359 134.766C265.024 135.165 265.081 135.792 265.081 135.792C265.081 135.792 263.747 136.544 260.737 134.549Z" fill="white"/>
<path d="M258.297 132.567C258.744 132.205 259.254 131.93 259.802 131.757C260.851 131.381 261.102 131.689 261.102 131.689C261.102 131.689 260.646 132.544 258.297 132.567Z" fill="white"/>
<path d="M286.424 97.9404L287.838 105.636L288.465 109.296L288.704 111.702V113.891L288.533 116.695L288.089 119.819L287.644 121.837L286.903 124.562L285.729 128.108L284.292 131.414L282.24 135.416L280.245 138.78L277.246 143.192L274.271 147L273.712 147.638L272.344 149.531L270.976 150.865C270.976 150.865 291.703 126.569 286.424 97.9404Z" fill="#F2B186"/>
<path d="M262.926 120.173C262.926 120.173 265.731 119.614 266.495 119.489C267.259 119.364 267.236 120.093 267.042 120.219C266.848 120.344 264.819 120.812 264.249 120.948C263.679 121.085 262.926 120.173 262.926 120.173Z" fill="#682447"/>
<path d="M265.138 99.0576C265.138 99.0576 264.693 103.002 272.64 116.399C272.64 116.399 273.29 120.31 266.381 120.663C265.527 120.889 264.712 121.243 263.964 121.712C263.964 121.712 263.838 120.902 266.084 119.876C268.33 118.85 269.858 118.611 269.824 116.536C269.79 114.461 264.807 104.245 265.138 99.0576Z" fill="#F2B186"/>
<path d="M261.045 116.206C257.784 119.455 260.236 121.656 262.185 120.767C263.788 119.947 265.574 119.554 267.373 119.626C266.246 119.377 265.079 119.377 263.952 119.626C260.099 120.767 259.791 119.626 260.817 116.879L261.045 116.206Z" fill="#F2B186"/>
<path d="M51.1598 216.229H49.3584L50.4986 218.339H52.528L53.2349 219.661L49.6663 219.729L45.5048 211.942L48.9252 211.874L49.6321 213.185H47.7395L48.6972 214.975H50.4986L51.1598 216.229Z" fill="black"/>
<path d="M50.1566 211.954C50.6372 211.832 51.1314 211.771 51.6274 211.772C52.5245 211.728 53.4141 211.955 54.1813 212.422C55.3492 213.182 56.2875 214.246 56.8947 215.5C57.7384 217.073 57.9209 218.202 57.556 218.818C57.1912 219.434 56.6553 219.593 55.5494 219.616C55.1277 219.637 54.7051 219.633 54.2839 219.605L50.1566 211.954ZM55.1504 218.396C55.2412 218.407 55.3331 218.407 55.424 218.396C56.1651 218.396 56.4273 217.644 55.2758 215.5C54.4207 213.904 53.4858 212.935 52.5623 212.958C52.4689 212.933 52.3707 212.933 52.2772 212.958L55.1504 218.396Z" fill="black"/>
<path d="M57.3165 211.691L59.9844 216.753C60.6001 217.893 61.1246 218.246 61.535 218.235C61.9454 218.224 62.1279 217.904 61.535 216.73L58.8443 211.668H60.3721L62.9374 216.468C64.0091 218.463 63.8266 219.569 62.3103 219.592C60.7939 219.615 59.4258 218.52 58.3769 216.571L55.8116 211.759L57.3165 211.691Z" fill="black"/>
<path d="M70.0973 219.102C69.6249 219.302 69.1171 219.407 68.6038 219.409C67.7123 219.431 66.836 219.177 66.0955 218.68C64.9405 217.892 64.0126 216.815 63.4048 215.556C61.9341 212.728 62.9374 211.508 64.5449 211.486C65.0246 211.47 65.5032 211.54 65.9587 211.691L66.3805 213.002C66.0647 212.88 65.7268 212.825 65.3886 212.842C64.3511 212.842 63.8951 213.583 64.9896 215.624C65.9929 217.494 67.0874 218.144 67.7943 218.132C67.8885 218.15 67.9851 218.15 68.0793 218.132L67.076 216.24H66.3691L65.7079 215.009H67.8285L70.0973 219.102Z" fill="black"/>
<path d="M71.6479 217.483L72.2521 219.273H70.77L68.3073 211.44H70.1429L75.8435 219.205H74.3614L73.073 217.437L71.6479 217.483ZM72.2977 216.286L71.1576 214.656C70.8156 214.188 70.3025 213.413 69.9491 212.888C70.1429 213.413 70.4621 214.222 70.6218 214.678L71.1918 216.309L72.2977 216.286Z" fill="black"/>
<path d="M73.5519 212.786H72.1609L71.3856 211.417L75.7067 211.326L76.4478 212.729H75.0454L78.4658 219.125H76.938L73.5519 212.786Z" fill="black"/>
<path d="M82.2055 215.624H80.4155L81.5556 217.722H83.585L84.2919 219.033L80.7347 219.102L76.5732 211.314L79.9936 211.246L80.6891 212.569H78.8079L79.7656 214.359H81.5556L82.2055 215.624Z" fill="black"/>
<path d="M81.1451 211.224H82.6729L86.2073 217.7H88.2253L88.9094 218.976L85.3636 219.045L81.1451 211.224Z" fill="black"/>
<path d="M90.038 218.92L88.4875 215.944L84.1892 211.167H85.8196L87.3473 212.98C87.7578 213.481 88.2138 214.052 88.6471 214.633C88.4305 214.063 88.2594 213.493 88.0998 212.934L87.5982 211.099H89.1829L89.9582 215.887L91.5658 218.92H90.038Z" fill="black"/>
<path d="M302.785 142.486L305.863 141.551L317.892 75.3438L315.908 74.3291" fill="url(#paint18_linear_427_2075)"/>
</g>
<defs>
<linearGradient id="paint0_linear_427_2075" x1="400.391" y1="807.678" x2="326.283" y2="387.418" gradientUnits="userSpaceOnUse">
<stop stop-color="#FF957C"/>
<stop offset="0.98" stop-color="#D17D67"/>
</linearGradient>
<linearGradient id="paint1_linear_427_2075" x1="311.712" y1="865.254" x2="223.433" y2="364.546" gradientUnits="userSpaceOnUse">
<stop stop-color="#FF957C"/>
<stop offset="0.98" stop-color="#FFAE78"/>
</linearGradient>
<linearGradient id="paint2_linear_427_2075" x1="235.21" y1="201.68" x2="235.21" y2="159.233" gradientUnits="userSpaceOnUse">
<stop offset="0.01" stop-color="#EFEDFF"/>
<stop offset="1" stop-color="#EBE8FF"/>
</linearGradient>
<linearGradient id="paint3_linear_427_2075" x1="258.833" y1="200.369" x2="258.833" y2="161.73" gradientUnits="userSpaceOnUse">
<stop offset="0.01" stop-color="#EFEDFF"/>
<stop offset="1" stop-color="#EBE8FF"/>
</linearGradient>
<linearGradient id="paint4_linear_427_2075" x1="325.268" y1="200.609" x2="325.268" y2="178.559" gradientUnits="userSpaceOnUse">
<stop offset="0.01" stop-color="#EFEDFF"/>
<stop offset="1" stop-color="#EBE8FF"/>
</linearGradient>
<linearGradient id="paint5_linear_427_2075" x1="130.649" y1="288.991" x2="130.649" y2="257.318" gradientUnits="userSpaceOnUse">
<stop offset="0.01" stop-color="#EFEDFF"/>
<stop offset="1" stop-color="#EBE8FF"/>
</linearGradient>
<linearGradient id="paint6_linear_427_2075" x1="130.159" y1="335.689" x2="130.159" y2="335.531" gradientUnits="userSpaceOnUse">
<stop offset="0.01" stop-color="#BE6888"/>
<stop offset="1" stop-color="#8E81F4"/>
</linearGradient>
<linearGradient id="paint7_linear_427_2075" x1="169.169" y1="96.4159" x2="200.97" y2="105.547" gradientUnits="userSpaceOnUse">
<stop stop-color="#FFD9A4"/>
<stop offset="1" stop-color="#FFB69A"/>
</linearGradient>
<linearGradient id="paint8_linear_427_2075" x1="172.051" y1="96.9942" x2="195.918" y2="103.847" gradientUnits="userSpaceOnUse">
<stop offset="0.01" stop-color="#D8608B"/>
<stop offset="1" stop-color="#FFEADB"/>
</linearGradient>
<linearGradient id="paint9_linear_427_2075" x1="181.067" y1="106.451" x2="184.934" y2="92.9828" gradientUnits="userSpaceOnUse">
<stop stop-color="#FFEADB"/>
<stop offset="0.99" stop-color="#D8608B"/>
</linearGradient>
<linearGradient id="paint10_linear_427_2075" x1="189.435" y1="105.069" x2="191.707" y2="97.1571" gradientUnits="userSpaceOnUse">
<stop stop-color="#FFEADB"/>
<stop offset="0.99" stop-color="#D8608B"/>
</linearGradient>
<linearGradient id="paint11_linear_427_2075" x1="185.139" y1="115.734" x2="187.59" y2="107.198" gradientUnits="userSpaceOnUse">
<stop offset="0.01" stop-color="#D8608B"/>
<stop offset="1" stop-color="#FFEADB"/>
</linearGradient>
<linearGradient id="paint12_linear_427_2075" x1="188.717" y1="110.546" x2="206.013" y2="50.3074" gradientUnits="userSpaceOnUse">
<stop offset="0.01" stop-color="#AB4F42"/>
<stop offset="0.99" stop-color="#9F4545"/>
</linearGradient>
<linearGradient id="paint13_linear_427_2075" x1="213.057" y1="25.0702" x2="218.966" y2="4.49018" gradientUnits="userSpaceOnUse">
<stop stop-color="#FFEADB"/>
<stop offset="0.99" stop-color="#B060F4"/>
</linearGradient>
<linearGradient id="paint14_linear_427_2075" x1="205.257" y1="31.8702" x2="212.185" y2="7.73963" gradientUnits="userSpaceOnUse">
<stop stop-color="#FFEADB"/>
<stop offset="0.99" stop-color="#B060F4"/>
</linearGradient>
<linearGradient id="paint15_linear_427_2075" x1="267.284" y1="73.3443" x2="278.054" y2="35.8335" gradientUnits="userSpaceOnUse">
<stop stop-color="#FFEADB"/>
<stop offset="0.99" stop-color="#B060F4"/>
</linearGradient>
<linearGradient id="paint16_linear_427_2075" x1="268.903" y1="162.127" x2="267.962" y2="154.959" gradientUnits="userSpaceOnUse">
<stop stop-color="white"/>
<stop offset="1" stop-color="#DDD6FA"/>
</linearGradient>
<linearGradient id="paint17_linear_427_2075" x1="277.637" y1="100.197" x2="279.214" y2="92.1646" gradientUnits="userSpaceOnUse">
<stop stop-color="white"/>
<stop offset="1" stop-color="#DDD6FA"/>
</linearGradient>
<linearGradient id="paint18_linear_427_2075" x1="302.785" y1="108.407" x2="317.892" y2="108.407" gradientUnits="userSpaceOnUse">
<stop offset="0.01" stop-color="#EFEDFF"/>
<stop offset="1" stop-color="#EBE8FF"/>
</linearGradient>
</defs>
</svg>
