<svg width="339" height="563" viewBox="0 0 339 563" fill="none" xmlns="http://www.w3.org/2000/svg">
<path d="M337.53 0H0.530396V394.5C0.530396 487.56 75.9704 563 169.03 563C262.09 563 337.53 487.56 337.53 394.5V0Z" fill="#FF6060"/>
<path d="M337.53 319C310.53 248.333 205.53 107 1.5304 107" stroke="white" stroke-width="3"/>
<path fill-rule="evenodd" clip-rule="evenodd" d="M289.498 200.171C301.58 201.643 312.049 208.064 318.794 218.138C325.048 227.48 327.075 239.247 324.338 250.315C323.292 254.545 321.206 259.269 318.794 262.872C311.176 274.251 298.661 281.003 285.135 281.032C276.252 281.052 267.959 278.307 260.76 272.963L259.097 271.729L249.326 281.525C242.745 288.121 239.319 291.43 238.835 291.657C236.54 292.735 233.78 291.147 233.569 288.628C233.415 286.777 233.205 287.027 243.935 276.294L253.799 266.428L252.565 264.764C247.225 257.562 244.481 249.265 244.5 240.377C244.514 234.182 245.907 228.201 248.617 222.71C252.647 214.545 259.161 208.029 267.221 204.098C271.669 201.93 275.73 200.747 280.78 200.152C282.571 199.941 287.7 199.952 289.498 200.171ZM281.829 207.7C274.191 208.444 267.199 211.758 261.736 217.223C256.781 222.18 253.662 228.262 252.468 235.293C252.095 237.487 252.042 243.059 252.374 245.179C253.502 252.393 256.694 258.732 261.742 263.782C266.789 268.833 273.125 272.026 280.336 273.155C282.455 273.487 288.024 273.434 290.217 273.061C297.244 271.866 303.323 268.745 308.278 263.788C317.245 254.816 320.258 241.75 316.135 229.72C312.899 220.278 305.229 212.604 295.786 209.361C291.242 207.8 286.547 207.241 281.829 207.7Z" fill="white" stroke="#FF6060" stroke-width="5"/>
<circle r="35.5" transform="matrix(-1 0 0 1 285.03 240.5)" fill="#FF6060"/>
<path fill-rule="evenodd" clip-rule="evenodd" d="M289.326 222.08C291.51 222.67 293.409 223.195 293.546 223.248C294.378 223.564 294.528 224.866 293.793 225.389C293.682 225.468 293.071 225.675 292.436 225.849L291.281 226.165L291.262 228.205L291.243 230.245L291.443 230.246C291.747 230.247 292.335 230.556 292.626 230.869C292.769 231.023 293.477 231.859 294.198 232.727L295.509 234.305V234.732V235.16H297.736C300.971 235.16 300.797 235.061 302.082 237.621L302.952 239.353V246.604V253.855L303.14 254.03C303.482 254.35 303.53 254.531 303.53 255.498C303.53 255.994 303.496 256.492 303.453 256.604C303.344 256.893 303.106 257.131 302.772 257.285C302.501 257.41 302.212 257.419 298.29 257.42C294.194 257.422 294.096 257.425 294.009 257.565C293.96 257.643 293.791 257.773 293.633 257.854C293.35 257.998 293.236 258 285.03 258C276.825 258 276.71 257.998 276.427 257.854C276.27 257.773 276.101 257.643 276.052 257.565C275.964 257.425 275.867 257.422 271.77 257.42C267.849 257.419 267.56 257.41 267.289 257.285C266.955 257.131 266.717 256.893 266.608 256.604C266.565 256.492 266.53 255.994 266.53 255.498C266.53 254.531 266.578 254.35 266.921 254.03L267.109 253.855V246.639V239.423L268.008 237.625C269.302 235.039 269.09 235.16 272.325 235.16H274.552V234.709V234.257L276.413 232.399C277.64 231.174 278.367 230.503 278.546 230.428L278.818 230.314L278.799 228.238L278.779 226.162L278.346 226.041C277.615 225.837 277.659 225.792 277.659 226.726C277.659 227.813 277.544 228.199 277.079 228.664C276.657 229.086 276.331 229.14 276.03 228.839C275.742 228.551 275.769 228.223 276.113 227.842L276.359 227.57V226.504C276.359 225.52 276.347 225.43 276.216 225.348C276.137 225.299 276.003 225.123 275.919 224.957C275.611 224.352 275.872 223.531 276.456 223.266C276.886 223.071 284.785 220.993 285.071 221C285.228 221.004 287.142 221.49 289.326 222.08ZM281.074 223.31C278.957 223.88 277.226 224.364 277.226 224.386C277.226 224.436 284.874 226.493 285.044 226.489C285.151 226.487 292.558 224.516 292.835 224.416C292.945 224.376 285.128 222.225 284.994 222.258C284.955 222.268 283.19 222.741 281.074 223.31ZM287.513 227.173C286.264 227.511 285.148 227.788 285.033 227.788C284.919 227.788 283.796 227.511 282.539 227.173C281.282 226.835 280.223 226.559 280.185 226.559C280.143 226.559 280.116 227.283 280.116 228.402V230.245H285.03H289.944V228.402C289.944 227.099 289.921 226.559 289.864 226.559C289.82 226.559 288.762 226.835 287.513 227.173ZM279.119 231.577C279.012 231.634 278.42 232.187 277.805 232.806L276.685 233.931H285.085C289.705 233.931 293.484 233.907 293.481 233.877C293.473 233.76 291.629 231.652 291.461 231.567C291.178 231.423 279.39 231.433 279.119 231.577ZM275.78 235.81V236.389H285.03H294.28V235.81V235.232H285.03H275.78V235.81ZM295.509 236.609C295.509 236.997 295.051 237.488 294.566 237.618L294.28 237.695V238.271V238.846H297.749C299.657 238.846 301.218 238.829 301.218 238.809C301.218 238.725 300.182 236.704 300.079 236.587C299.977 236.472 299.77 236.461 297.738 236.461C295.539 236.461 295.509 236.463 295.509 236.609ZM269.982 236.587C269.879 236.704 268.843 238.725 268.843 238.809C268.843 238.829 270.404 238.846 272.312 238.846H275.78V238.271V237.695L275.495 237.618C275.01 237.488 274.552 236.997 274.552 236.609C274.552 236.463 274.522 236.461 272.323 236.461C270.291 236.461 270.084 236.472 269.982 236.587ZM277.009 238.268V238.846H285.03H293.052V238.268V237.69H285.03H277.009V238.268ZM293.052 246.905V253.663H297.352H301.651V246.905V240.147H297.352H293.052V246.905ZM278.237 246.905V253.663H280.08H281.923V249.863V246.063L282.134 245.852L282.345 245.64H285.03H287.715L287.927 245.852L288.138 246.063V249.863V253.663H289.981H291.823V246.905V240.147H285.03H278.237V246.905ZM268.409 246.905V253.663H272.709H277.009V246.905V240.147H272.709H268.409V246.905ZM287.054 241.353C287.113 241.376 287.235 241.461 287.325 241.542C287.476 241.68 287.487 241.751 287.487 242.539C287.487 243.006 287.467 243.441 287.443 243.505C287.389 243.645 287.046 243.833 286.846 243.833C286.768 243.833 286.604 243.749 286.481 243.646L286.259 243.459V242.602C286.259 241.816 286.272 241.73 286.422 241.563C286.591 241.374 286.867 241.282 287.054 241.353ZM283.415 241.374C283.738 241.507 283.802 241.713 283.802 242.614V243.459L283.58 243.646C283.457 243.749 283.293 243.833 283.215 243.833C283.015 243.833 282.672 243.645 282.618 243.505C282.594 243.441 282.573 243.006 282.573 242.539C282.573 241.752 282.585 241.679 282.736 241.538C282.934 241.354 283.207 241.288 283.415 241.374ZM299.634 242.165C299.843 242.375 299.845 242.385 299.845 243.217C299.845 244.012 299.835 244.066 299.667 244.234C299.403 244.499 299.04 244.497 298.766 244.229C298.615 244.081 298.586 243.975 298.559 243.444C298.518 242.676 298.578 242.347 298.799 242.127C299.042 241.883 299.366 241.898 299.634 242.165ZM295.948 242.165C296.155 242.372 296.159 242.392 296.159 243.145C296.159 244.012 296.069 244.284 295.746 244.389C295.445 244.486 295.246 244.427 295.036 244.178C294.852 243.959 294.847 243.929 294.871 243.128C294.894 242.326 294.901 242.298 295.097 242.128C295.378 241.887 295.683 241.901 295.948 242.165ZM274.963 242.128C275.158 242.296 275.167 242.332 275.191 243.073C275.206 243.549 275.184 243.92 275.132 244.046C274.94 244.51 274.236 244.56 274.011 244.125C273.933 243.974 273.901 243.69 273.901 243.145C273.901 242.392 273.906 242.372 274.113 242.165C274.378 241.901 274.683 241.887 274.963 242.128ZM271.262 242.127C271.482 242.347 271.542 242.676 271.502 243.444C271.474 243.975 271.446 244.081 271.295 244.229C271.021 244.497 270.658 244.499 270.393 244.234C270.225 244.066 270.216 244.012 270.216 243.217C270.216 242.385 270.218 242.375 270.427 242.165C270.695 241.898 271.019 241.883 271.262 242.127ZM299.634 245.852C299.843 246.061 299.845 246.072 299.845 246.896C299.845 247.656 299.831 247.744 299.682 247.913C299.593 248.015 299.418 248.117 299.294 248.141C299.111 248.176 299.023 248.144 298.828 247.97C298.593 247.76 298.587 247.74 298.558 247.067C298.522 246.243 298.613 245.9 298.908 245.748C299.214 245.589 299.398 245.616 299.634 245.852ZM295.948 245.852C296.155 246.058 296.159 246.079 296.159 246.823C296.159 247.725 296.1 247.915 295.769 248.073C295.556 248.174 295.486 248.178 295.294 248.099C294.925 247.946 294.843 247.691 294.87 246.782C294.894 246.016 294.902 245.983 295.097 245.815C295.378 245.574 295.683 245.587 295.948 245.852ZM274.963 245.815C275.159 245.983 275.167 246.016 275.19 246.782C275.218 247.691 275.136 247.946 274.767 248.099C274.575 248.178 274.505 248.174 274.292 248.073C273.961 247.915 273.901 247.725 273.901 246.823C273.901 246.079 273.906 246.058 274.113 245.852C274.377 245.587 274.683 245.574 274.963 245.815ZM271.168 245.751C271.447 245.903 271.538 246.261 271.503 247.067C271.474 247.74 271.468 247.76 271.233 247.97C271.038 248.144 270.95 248.176 270.767 248.141C270.643 248.117 270.468 248.015 270.379 247.913C270.23 247.744 270.216 247.656 270.216 246.896C270.216 246.072 270.218 246.061 270.427 245.852C270.659 245.62 270.873 245.591 271.168 245.751ZM283.224 250.302V253.663H285.03H286.837V250.302V246.941H285.03H283.224V250.302ZM299.458 249.398C299.778 249.528 299.845 249.737 299.845 250.613C299.845 251.424 299.842 251.436 299.634 251.645C299.398 251.881 299.214 251.907 298.908 251.749C298.615 251.598 298.521 251.252 298.558 250.457C298.59 249.755 298.675 249.534 298.959 249.404C299.157 249.314 299.246 249.313 299.458 249.398ZM295.819 249.442C296.102 249.595 296.159 249.803 296.159 250.674C296.159 251.417 296.155 251.438 295.948 251.645C295.683 251.91 295.378 251.923 295.097 251.682C294.902 251.514 294.894 251.478 294.87 250.737C294.842 249.863 294.916 249.592 295.226 249.432C295.477 249.302 295.564 249.303 295.819 249.442ZM274.849 249.435C275.146 249.596 275.219 249.875 275.191 250.737C275.167 251.478 275.158 251.514 274.963 251.682C274.704 251.905 274.399 251.905 274.14 251.682C273.948 251.517 273.936 251.47 273.912 250.81C273.878 249.862 273.927 249.642 274.213 249.468C274.484 249.302 274.594 249.297 274.849 249.435ZM271.123 249.406C271.387 249.539 271.471 249.772 271.503 250.457C271.539 251.252 271.446 251.598 271.153 251.749C270.847 251.907 270.663 251.881 270.427 251.645C270.218 251.436 270.216 251.425 270.216 250.601C270.216 249.84 270.23 249.752 270.379 249.584C270.562 249.375 270.902 249.294 271.123 249.406ZM294.28 255.543V256.121H298.291H302.302V255.543V254.964H298.291H294.28V255.543ZM277.009 255.868V256.771H285.03H293.052V255.868V254.964H285.03H277.009V255.868ZM267.759 255.543V256.121H271.77H275.78V255.543V254.964H271.77H267.759V255.543Z" fill="white"/>
<g clip-path="url(#clip0_433_3161)">
<path d="M187.002 273.69C186.651 271.69 187.002 248.387 187.002 248.387L169.306 253.19L151.611 248.387C151.611 248.387 151.945 271.72 151.611 273.69C151.277 275.66 127.305 286.143 127.305 286.143C127.305 286.143 146.206 322.095 169.173 322.475C182.554 322.698 209.655 286.173 211.291 286.143C211.311 286.143 187.356 275.66 187.002 273.69Z" fill="#FFC9A4"/>
<path d="M151.755 259.357C151.755 259.357 169.209 270.69 186.848 267.29L187.002 248.387H151.631L151.755 259.357Z" fill="#E2A17D"/>
<path d="M236.716 197.299C236.442 198.609 236.138 199.785 235.814 200.842L235.794 200.895C233.457 208.415 229.915 210.185 228.489 213.581C227.254 216.511 222.402 222.401 217.601 216.275C217.595 216.276 217.588 216.276 217.581 216.275C217.581 216.275 219.862 191.365 221.698 186.839C221.698 186.839 224.349 180.046 229.113 179.019C235.247 177.679 239.11 185.722 236.716 197.299Z" fill="#FFB89B"/>
<path d="M219.254 200.805C219.254 200.805 228.84 186.909 233.427 185.999C238.014 185.089 235.717 196.879 234.796 200.805C233.874 204.732 232.492 207.055 232.492 207.055C232.492 207.055 233.647 202.419 233.874 198.665C234.208 193.276 232.482 188.646 230.556 189.086C228.629 189.526 226.045 196.305 225.881 197.085C225.718 197.865 227.153 199.235 227.07 203.418C226.987 207.602 224.983 212.152 223.895 212.085C222.806 212.018 223.274 208.642 223.274 204.728C223.274 200.815 220.216 201.575 218.86 204.118L219.254 200.805Z" fill="#F88782"/>
<path d="M218.857 204.125C218.857 204.125 221.321 200.402 222.8 202.092C224.279 203.782 223.214 208.472 224.349 209.032C225.484 209.592 227 205.805 226.686 202.338C226.372 198.872 225.017 195.765 223.053 196.339L219.254 200.805L218.857 204.125Z" fill="#B56969"/>
<path d="M235.801 200.896C233.464 208.415 229.921 210.185 228.496 213.582C227.26 216.512 222.409 222.401 217.608 216.275C217.895 216.512 220.673 218.762 223.491 217.742C226.459 216.662 227.407 213.888 228.666 211.742C229.925 209.595 233.14 208.125 235.801 200.896Z" fill="#DD6B7C"/>
<path d="M100.705 197.299C100.976 198.609 101.279 199.785 101.607 200.842L101.627 200.895C103.964 208.415 107.506 210.185 108.932 213.581C110.164 216.511 115.015 222.401 119.816 216.275C119.823 216.276 119.829 216.276 119.836 216.275C119.836 216.275 117.556 191.365 115.719 186.839C115.719 186.839 113.068 180.046 108.304 179.019C102.164 177.679 98.3179 185.722 100.705 197.299Z" fill="#FFB89B"/>
<path d="M118.19 200.806C118.19 200.806 108.585 186.909 104 185.996C99.4163 185.083 101.71 196.876 102.632 200.802C103.553 204.729 104.932 207.052 104.932 207.052C104.932 207.052 103.777 202.415 103.553 198.662C103.219 193.272 104.945 188.643 106.868 189.083C108.792 189.523 111.382 196.302 111.543 197.082C111.703 197.862 110.267 199.232 110.351 203.415C110.434 207.599 112.437 212.148 113.529 212.082C114.621 212.015 114.15 208.639 114.15 204.725C114.15 200.812 117.208 201.572 118.561 204.115L118.19 200.806Z" fill="#F88782"/>
<path d="M118.567 204.125C118.567 204.125 116.107 200.402 114.628 202.092C113.149 203.782 114.21 208.472 113.078 209.032C111.947 209.592 110.427 205.805 110.721 202.338C111.015 198.872 112.391 195.765 114.354 196.339L118.19 200.805L118.567 204.125Z" fill="#B56969"/>
<path d="M101.627 200.896C103.964 208.415 107.506 210.185 108.932 213.582C110.164 216.512 115.015 222.401 119.816 216.275C119.532 216.512 116.754 218.762 113.936 217.742C110.965 216.662 110.017 213.888 108.758 211.742C107.499 209.595 104.284 208.125 101.627 200.896Z" fill="#DD6B7C"/>
<path d="M223.541 188.852C223.537 188.864 223.537 188.877 223.541 188.889C222.362 195.355 220.913 202.165 219.915 209.975C217.267 230.578 211.618 240.047 198.717 249.144C185.205 258.687 181.152 262.4 169.483 262.873C157.798 262.4 153.758 258.687 140.246 249.144C127.355 240.047 121.696 230.578 119.058 209.975C118.471 205.378 117.723 201.135 116.975 197.105C116.421 194.105 115.856 191.232 115.345 188.416C115.345 188.369 115.329 188.332 115.319 188.296C115.318 188.284 115.318 188.271 115.319 188.259C113.456 177.926 112.314 168.376 114.881 156.853C117.512 144.931 126.594 130.134 140.413 120.795C148.573 115.285 158.375 111.665 169.473 111.665C199.425 111.665 219.888 137.874 224.085 156.84C226.699 168.6 225.461 178.289 223.541 188.852Z" fill="#FFC9A4"/>
<path d="M223.608 188.889C222.432 195.356 220.98 202.166 219.982 209.975C217.351 230.578 211.675 240.048 198.784 249.144C185.272 258.687 181.219 262.4 169.55 262.873C157.881 262.4 153.825 258.687 140.313 249.144C127.422 240.048 121.763 230.578 119.125 209.975C118.1 201.976 116.608 195.022 115.412 188.416C115.786 190.019 118.888 203.269 121.909 216.708C125.145 231.041 129.899 239.881 144.212 250.851C157.531 261.057 165.29 261.91 169.233 261.947H169.901C173.844 261.91 181.603 261.057 194.921 250.851C209.234 239.881 213.992 231.051 217.227 216.708C220.059 204.155 222.933 191.789 223.608 188.889Z" fill="#F2B186"/>
<path style="mix-blend-mode:multiply" opacity="0.6" d="M139.044 120.265C138.433 120.718 122.704 132.264 121.576 142.974C120.42 153.89 121.122 166.183 117.609 176.486C114.227 186.416 116.324 195.592 116.481 196.239C116.394 196.012 115.843 194.512 115.048 192.129C114.481 189.312 113.903 186.599 113.379 183.946C113.379 183.902 113.379 183.866 113.352 183.832C113.35 183.82 113.35 183.808 113.352 183.796C111.449 174.059 110.294 165.073 112.908 154.22C115.599 142.991 124.898 129.058 139.047 120.265H139.044Z" fill="url(#paint0_linear_433_3161)"/>
<path d="M221.024 180.2L215.174 170.39L214.44 173.253L198.15 161.68L197.652 166.753C197.652 166.753 174.772 159.33 166.395 158.664C158.018 157.997 132.831 150.997 132.831 150.997C132.831 150.997 116.277 200.489 120.013 208.329H116.007L115.429 168.81L122.013 151.004L136.927 140.608L162.252 138.194C162.252 138.194 186.902 151.527 188.658 151.004C190.414 150.481 211.328 151.687 211.328 151.687L221.604 166.863L221.024 180.2Z" fill="#F2B186"/>
<path d="M198.56 120.265C199.171 120.718 214.904 132.264 216.029 142.974C217.184 153.89 216.486 166.183 219.999 176.486C223.381 186.416 221.284 195.592 221.124 196.239C221.214 196.012 221.765 194.512 222.559 192.129C223.127 189.312 223.705 186.599 224.229 183.946C224.235 183.907 224.244 183.87 224.255 183.832C224.257 183.82 224.257 183.808 224.255 183.796C226.162 174.059 227.314 165.073 224.703 154.22C222.025 142.997 212.717 129.058 198.57 120.265H198.56Z" fill="#F2B186"/>
<path d="M181.346 182.329C181.346 182.329 182.347 176.393 183.559 174.439C183.559 174.439 194.354 171.66 200.43 170.913C207.659 170.02 209.849 170.58 209.849 170.58C209.849 170.58 213.491 172.003 216.276 178.479C216.276 178.479 212.323 174.016 209.301 173.883C200.076 173.453 186.985 177.966 181.346 182.329Z" fill="#161616"/>
<path d="M181.346 182.329C181.346 182.329 180.775 177.27 181.943 174.873H180.828C180.828 174.873 180.02 177.703 181.346 182.329Z" fill="url(#paint1_linear_433_3161)"/>
<path d="M156.659 182.329C156.659 182.329 155.657 176.393 154.446 174.439C154.446 174.439 143.651 171.66 137.575 170.913C130.346 170.02 128.156 170.58 128.156 170.58C128.156 170.58 124.514 172.003 121.729 178.479C121.729 178.479 125.682 174.016 128.704 173.883C137.929 173.453 151.02 177.966 156.659 182.329Z" fill="#161616"/>
<path d="M156.659 182.329C156.659 182.329 157.23 177.27 156.062 174.873H157.173C157.173 174.873 157.985 177.703 156.659 182.329Z" fill="url(#paint2_linear_433_3161)"/>
<path d="M174.752 212.661C174.695 211.995 175.62 211.241 176.328 211.328C177.036 211.415 176.662 212.845 176.328 213.121C175.994 213.398 174.752 212.661 174.752 212.661Z" fill="#FFCCB8"/>
<path style="mix-blend-mode:multiply" d="M124.904 269.29C122.661 264.22 120.564 257.72 119.085 249.45C120.283 255.66 122.53 262.796 124.904 269.29Z" fill="url(#paint3_linear_433_3161)"/>
<path d="M196.223 77.1197C189.693 70.7866 167.844 60.2336 147.751 77.1197C142.262 81.7429 139.071 86.1194 137.331 90.0659L137.294 90.1026L137.017 90.7692C136.25 92.5891 135.756 94.5119 135.552 96.4757C135.469 97.1603 135.431 97.8495 135.438 98.539C135.478 104.295 138.213 107.872 138.213 107.872L192.788 105.065C192.788 105.065 195.315 102.809 196.911 97.3323C197.308 95.9562 197.607 94.5539 197.806 93.1358C197.895 92.4516 197.844 91.7564 197.656 91.0925C197.823 90.6659 197.989 90.2192 198.16 89.7359C199.368 86.0927 200.076 80.8729 196.223 77.1197ZM176.184 74.9998C176.101 74.9666 176.019 74.9288 175.94 74.8864C175.85 74.8331 175.757 74.7964 175.68 74.7564C175.68 74.7564 185.73 73.7165 192.614 79.1596C196.353 82.1329 197.078 86.276 196.954 89.4326C193.245 82.7462 179.049 76.2264 176.184 74.9998Z" fill="#161616"/>
<path d="M196.911 97.3323C195.312 102.812 192.801 105.079 192.801 105.079L138.223 107.882C138.223 107.882 135.488 104.295 135.448 98.5489C138.54 94.5924 146.559 86.7693 161.824 86.6393C181.009 86.4726 192.748 94.639 194.21 95.669C192.741 94.3357 180.498 83.8361 164.662 83.3894C151.244 82.9994 139.715 92.5358 135.552 96.4756C134.473 97.4756 133.882 98.1089 133.882 98.1089L136.991 90.7758L137.268 90.1092L137.304 90.0725C137.955 89.4059 149.678 77.8863 168.154 79.8562C187.235 81.8728 196.911 97.3323 196.911 97.3323Z" fill="#0A0A0A"/>
<path style="mix-blend-mode:multiply" d="M197.652 91.0893C197.841 91.7531 197.892 92.4483 197.803 93.1325C197.605 94.5516 197.307 95.9551 196.911 97.3324C195.646 87.7094 179.884 76.9364 176.184 74.9998C179.049 76.2431 193.245 82.7629 196.968 89.4326C197.078 86.2761 196.354 82.1329 192.628 79.1597C185.743 73.7165 175.693 74.7565 175.693 74.7565C173.313 73.7932 169.443 73.9765 169.443 73.9765C169.443 73.9765 182.488 71.4133 190.507 75.3898C198.527 79.3663 196.985 89.4526 196.985 89.4526L198.16 89.7326C197.986 90.216 197.823 90.6659 197.652 91.0893Z" fill="url(#paint4_linear_433_3161)"/>
<path d="M236.602 155.364C236.602 155.364 236.582 155.4 236.582 155.417C236.593 155.426 236.6 155.439 236.602 155.454C236.596 155.56 236.583 155.666 236.562 155.77C236.445 158.574 236.14 161.367 235.651 164.13C234.924 168.339 233.74 172.457 232.118 176.41H232.098C228.245 185.743 223.277 190.472 222.85 190.862C222.963 190.489 226.522 178.823 219.965 162.253C213.288 145.404 207.445 134.254 190.698 126.365C187.756 124.971 182.418 125.138 177.636 125.565H177.62C173.86 125.898 170.455 126.365 168.782 126.365C166.902 126.365 162.866 125.771 158.602 125.455C154.175 125.121 149.541 125.101 146.863 126.365C145.317 127.088 143.885 127.831 142.523 128.611C140.883 129.547 139.299 130.576 137.779 131.694C127.655 139.108 122.894 148.897 117.589 162.253C111.022 178.823 114.584 190.489 114.704 190.862C114.204 190.396 107.206 183.729 103.373 170.463H103.356L103.373 170.443H103.356V170.39C102.751 168.339 102.266 166.254 101.904 164.147C101.251 160.516 100.916 156.836 100.902 153.147V153.074C100.919 147.351 101.85 143.114 102.725 140.407C102.737 140.384 102.744 140.358 102.745 140.331C102.985 139.571 103.226 138.938 103.433 138.438C103.643 137.904 103.885 137.383 104.157 136.878L104.194 136.804C104.194 136.804 104.698 127.941 110.241 122.091L110.875 121.458C111.692 120.682 112.587 119.992 113.546 119.398C114.274 118.952 115.092 118.485 115.966 118.022L116.968 117.485C119.592 116.092 122.697 114.622 125.879 113.192L128.216 112.152H128.236C136.049 108.712 143.755 105.665 145.615 104.925C146.099 104.722 146.55 104.446 146.95 104.105C148.846 102.639 150.8 99.8889 153.314 98.1623C153.318 98.1566 153.324 98.152 153.33 98.1485C153.336 98.1451 153.343 98.143 153.35 98.1423C154.399 97.3811 155.611 96.8754 156.89 96.6657C161.988 95.959 168.779 100.362 168.779 100.362C168.779 100.362 174.024 100.529 179.129 101.235C182.668 101.758 186.139 102.667 189.479 103.945L189.609 104.002C190.444 104.299 191.209 104.595 191.916 104.895C192.198 104.999 192.492 105.067 192.791 105.099C196.901 105.619 207.675 102.609 213.278 110.099L214.45 111.658C216.55 114.462 218.596 117.192 220.516 119.758L224.309 124.808L230.933 133.578L233.354 136.774C233.354 136.774 234.879 139.354 235.828 144.441C235.847 144.489 235.859 144.539 235.864 144.591L236.125 146.207C236.572 149.238 236.732 152.303 236.602 155.364Z" fill="#161616"/>
<path d="M137.779 131.694C127.655 139.107 122.894 148.897 117.589 162.253C111.022 178.823 114.584 190.489 114.704 190.862C114.204 190.396 107.206 183.729 103.373 170.463L103.356 170.426V170.373C103.358 170.392 103.364 170.41 103.373 170.426C103.58 170.966 105.459 175.87 108.751 174.626C112.25 173.293 120.177 154.267 120.177 154.267C120.177 154.267 112.604 161.473 107.132 160.36C103.673 159.653 101.81 155.827 100.919 153.134C100.862 152.967 100.805 152.8 100.768 152.65C100.827 152.784 100.878 152.921 100.919 153.06C101.92 155.547 104.174 158.817 109.142 158.67C116.845 158.427 122.854 148.67 123.165 148.117C122.681 148.434 113.302 154.657 106.959 151.98C100.762 149.36 102.531 141.227 102.735 140.391C102.621 141.357 101.657 150.364 108.541 150.924C115.536 151.497 126.477 142.284 127.352 141.524C126.59 141.914 117.305 146.524 110.658 145.461C103.7 144.347 103.46 138.421 103.46 138.421L104.184 136.861L104.221 136.788C104.221 136.788 103.439 143.417 111.089 143.734C118.738 144.051 126.717 140.631 126.717 140.631C120.317 140.651 113.152 138.364 111.256 133.144C109.359 127.925 110.254 122.075 110.254 122.075L110.888 121.441C110.888 121.441 113.716 134.184 122.48 135.728C127.639 136.638 133.685 133.998 137.779 131.694Z" fill="#0A0A0A"/>
<path d="M158.589 125.455C154.162 125.121 149.528 125.101 146.85 126.365C145.304 127.088 143.872 127.831 142.51 128.611C141.712 128.688 128.443 129.764 122.397 126.828C116.187 123.781 115.99 117.998 115.99 117.998L116.991 117.462C116.991 117.462 116.247 125.128 125.178 126.461C134.109 127.795 144.269 125.048 144.269 125.048C144.269 125.048 134.874 124.938 130.053 122.541C125.232 120.145 125.903 113.178 125.903 113.178L128.24 112.138C127.979 112.548 124.297 118.435 130.771 121.948C137.468 125.588 154.736 123.118 154.736 123.118C151.317 117.139 148.702 110.737 146.96 104.075C150.449 99.6655 153.017 98.2789 153.317 98.1289C153.322 98.1233 153.327 98.1186 153.333 98.1151C153.34 98.1117 153.347 98.1096 153.354 98.1089C148.215 107.862 158.172 124.768 158.589 125.455Z" fill="#0A0A0A"/>
<path d="M236.639 155.27C236.636 155.333 236.623 155.394 236.602 155.453C236.596 155.56 236.583 155.666 236.562 155.77C236.171 157.943 234.295 166.156 228.693 161.677C222.479 156.717 216.636 149.27 216.282 148.804C219.912 156.587 222.479 167.623 222.479 167.623C225.287 175.163 230.015 176.289 232.098 176.409C228.245 185.742 223.277 190.472 222.85 190.862C222.963 190.489 226.522 178.823 219.965 162.253C213.288 145.404 207.445 134.254 190.698 126.364C187.756 124.971 182.418 125.138 177.636 125.564C189.803 116.035 189.489 103.942 189.489 103.942L189.619 103.999L192.801 105.075V105.095C194.233 123.541 183.179 123.578 183.179 123.578C183.179 123.578 188.204 124.561 196.39 121.125C204.577 117.688 213.288 110.125 213.288 110.125L214.46 111.685C213.194 120.018 196.931 126.991 196.931 126.991L204.944 129.591C222.062 127.158 220.519 119.785 220.519 119.785L224.312 124.835C221.671 129.851 206.563 132.658 206.563 132.658C225.561 140.051 230.936 133.604 230.936 133.604L233.357 136.801C226.062 139.531 208.366 136.891 208.366 136.891C224.78 145.89 235.29 144.557 235.831 144.47H235.851L235.868 144.62L236.128 146.237C227.494 150.417 209.875 138.731 209.875 138.731C209.875 138.731 221.084 157.293 228.135 158.663C234.405 159.907 236.248 156.23 236.582 155.41C236.582 155.393 236.602 155.373 236.602 155.357C236.612 155.327 236.624 155.298 236.639 155.27Z" fill="#0A0A0A"/>
<path d="M191.956 126.998C191.956 126.998 214.914 115.738 214.443 105.062C213.972 94.3858 193.673 97.6656 189.482 103.935L191.933 104.882C191.933 104.882 193.459 97.4223 204.974 100.239C216.49 103.055 188.638 125.715 188.638 125.715L191.956 126.998Z" fill="#474747"/>
<path d="M128.874 138.281C128.874 138.281 119.709 135.728 115.479 123.058C111.249 110.388 136.236 108.702 136.236 108.702L138.219 107.882C138.219 107.882 118.187 105.372 112.775 115.725C107.362 126.078 112.073 140.987 128.7 140.617L133.331 135.414L128.874 138.281Z" fill="#474747"/>
<path d="M206.577 137.881C206.577 137.881 224.606 148.34 234.826 146.581C240.836 145.547 239.627 139.864 233.357 136.784C230.516 135.391 230.946 133.598 230.946 133.598C230.946 133.598 238.996 137.961 240.759 145.321C242.522 152.68 223.324 150.787 206.577 137.881Z" fill="#474747"/>
<path d="M212.777 146.581C212.777 146.581 214.823 149.667 217.995 157.604C221.167 165.54 225.952 176.03 230.419 176.733C234.886 177.436 241.54 169.92 236.639 156.497C236.639 156.497 236.145 159.583 236.101 161.187C236.008 164.56 239.407 171.806 235 172.453C230.122 173.166 228.643 155.264 212.777 146.581Z" fill="#474747"/>
<path d="M123.702 148.551C123.702 148.551 110.902 154.594 105.005 150.091C99.1091 145.587 105.583 130.261 105.583 130.261C105.583 130.261 98.3078 141.354 100.421 151.83C102.535 162.307 114.791 160.4 123.702 148.551Z" fill="#474747"/>
<path d="M222.85 190.862C222.85 190.862 220.933 202.075 225.264 229.294C229.594 256.513 212.777 270.02 212.777 270.02C212.777 270.02 229.006 260.387 230.299 241.144C231.591 221.901 219.721 217.208 224.205 189.442L222.85 190.862Z" fill="#474747"/>
<path d="M112.297 187.839C112.297 187.839 117.188 200.996 114.073 227.251C110.651 256.134 124.424 266.663 124.424 266.663C124.424 266.663 113.012 243.251 114.765 225.088C116.517 206.925 115.766 199.012 114.691 190.863L112.297 187.839Z" fill="#474747"/>
<path d="M168.181 79.8496C168.181 79.8496 170.762 78.683 175.68 78.2396C180.598 77.7963 187.699 84.2394 187.699 84.2394L188.267 88.196C188.267 88.196 178.621 79.5763 168.181 79.8496Z" fill="#474747"/>
<path d="M175.68 73.2364C175.68 73.2364 180.765 70.3331 185.526 71.3331C190.287 72.3331 191.085 75.6996 191.085 75.6996C191.085 75.6996 185.633 72.2164 175.68 73.2364Z" fill="#474747"/>
<path d="M127.539 113.488C127.539 113.488 128.457 116.841 134.981 120.185C141.505 123.528 146.272 123.851 146.272 123.851C146.272 123.851 126.814 124.331 127.539 113.488Z" fill="#0A0A0A"/>
<path opacity="0.6" d="M154.095 233.938C154.095 233.938 157.697 243.187 169.253 243.187C181.005 243.187 184.761 234.341 184.761 234.341C184.761 234.341 180.638 236.341 169.927 236.341C159.217 236.341 154.095 233.938 154.095 233.938Z" fill="#BB0B43"/>
<path opacity="0.6" d="M184.02 234.611C179.403 235.709 174.677 236.292 169.931 236.348C164.782 236.348 159.741 235.348 157.207 234.774C157.14 234.774 157.087 234.744 157.03 234.738L156.419 234.581L155.818 234.431L155.501 234.348L155.554 234.324C156.058 234.128 160.228 231.011 168.969 230.911C169.263 230.911 169.57 230.911 169.887 230.911C170.204 230.911 170.512 230.911 170.805 230.911C178.818 231.021 182.825 234.091 183.793 234.501L184.02 234.611Z" fill="#BB0B43"/>
<path d="M153.246 233.557L153.143 233.507L153.246 233.557Z" fill="#842751"/>
<path d="M169.941 235.994C159.23 236.081 154.002 233.904 153.247 233.567C159.694 236.631 169.897 237.487 169.897 237.487C169.897 237.487 180.171 236.631 186.618 233.567C185.867 233.894 180.625 236.071 169.941 235.994Z" fill="#842751"/>
<path d="M186.614 233.557L186.717 233.507L186.614 233.557Z" fill="#842751"/>
<g style="mix-blend-mode:multiply" opacity="0.6">
<path d="M159.06 240.027C162.043 242.582 165.833 244.006 169.764 244.047C176.234 244.047 179.85 240.027 179.85 240.027C179.85 240.027 176.321 242.397 169.43 242.397C162.539 242.397 159.06 240.027 159.06 240.027Z" fill="#D177B8"/>
</g>
<g style="mix-blend-mode:multiply" opacity="0.6">
<path d="M155.554 234.327C156.058 234.131 160.228 231.014 168.969 230.914C161.624 231.077 157.467 234.647 157.207 234.777L157.04 234.731L156.429 234.574L155.828 234.424L155.511 234.341L155.554 234.327Z" fill="#D177B8"/>
</g>
<g style="mix-blend-mode:multiply" opacity="0.6">
<path d="M183.793 234.501L182.665 234.784C182.665 234.784 178.414 231.074 170.805 230.911C178.818 231.021 182.832 234.091 183.793 234.501Z" fill="#D177B8"/>
</g>
<path d="M162.552 235.777C162.552 235.777 170.064 236.827 177.81 235.777C177.81 235.777 174.969 236.944 170.181 237.111C165.393 237.277 162.552 235.777 162.552 235.777Z" fill="#DE8DB3"/>
<g style="mix-blend-mode:soft-light">
<path d="M171.944 238.091C172.54 238.761 172.892 239.613 172.946 240.507L174.902 240.287C174.902 240.287 174.949 239.327 173.613 237.801L171.944 238.091Z" fill="#FFFCB8"/>
</g>
<g style="mix-blend-mode:soft-light">
<path d="M175.009 237.478C175.009 237.478 176.294 238.584 176.344 240.027H176.792C176.792 240.027 177.062 238.811 175.5 237.478H175.009Z" fill="#FFFCB8"/>
</g>
<path d="M186.033 192.242C186.033 192.242 181.653 193.142 180.842 195.805C180.842 195.805 183.773 196.409 186.033 195.269V192.242Z" fill="#D36E8A"/>
<path d="M184.468 195.946C184.468 195.946 184.067 190.966 192.891 188.336C201.716 185.706 208.306 187.593 208.306 187.593C208.306 187.593 201.088 199.379 184.468 195.946Z" fill="url(#paint5_linear_433_3161)"/>
<path d="M199.719 194.442C199.591 195.343 199.199 196.187 198.593 196.867C197.986 197.546 197.193 198.032 196.311 198.264C195.429 198.495 194.498 198.461 193.635 198.166C192.773 197.872 192.016 197.33 191.461 196.608C190.906 195.886 190.576 195.016 190.514 194.108C190.452 193.2 190.659 192.294 191.111 191.503C191.562 190.712 192.238 190.072 193.052 189.663C193.867 189.253 194.784 189.093 195.689 189.202C196.299 189.282 196.886 189.48 197.419 189.786C197.952 190.093 198.418 190.501 198.793 190.988C199.167 191.474 199.441 192.03 199.6 192.623C199.759 193.216 199.8 193.834 199.719 194.442Z" fill="#320909"/>
<path d="M199.432 194.409C199.311 195.253 198.944 196.043 198.376 196.68C197.808 197.317 197.064 197.773 196.238 197.989C195.412 198.206 194.54 198.175 193.731 197.899C192.923 197.623 192.214 197.115 191.694 196.439C191.173 195.763 190.864 194.949 190.805 194.098C190.746 193.247 190.94 192.398 191.362 191.656C191.784 190.915 192.416 190.315 193.179 189.93C193.942 189.546 194.801 189.395 195.649 189.496C196.221 189.57 196.772 189.756 197.272 190.044C197.771 190.331 198.209 190.713 198.56 191.17C198.912 191.626 199.169 192.147 199.319 192.703C199.468 193.259 199.507 193.838 199.432 194.409Z" fill="#471F1F"/>
<path d="M197.923 194.329C197.845 194.881 197.606 195.398 197.235 195.815C196.864 196.231 196.379 196.529 195.839 196.672C195.299 196.814 194.729 196.794 194.201 196.614C193.672 196.434 193.209 196.102 192.869 195.66C192.528 195.219 192.326 194.686 192.288 194.13C192.249 193.574 192.376 193.019 192.653 192.535C192.929 192.051 193.342 191.659 193.841 191.408C194.339 191.157 194.901 191.059 195.455 191.126C196.208 191.225 196.89 191.617 197.353 192.218C197.815 192.819 198.02 193.578 197.923 194.329Z" fill="#050505"/>
<path d="M197.652 194.286C197.637 194.408 197.585 194.524 197.504 194.618C197.423 194.711 197.316 194.779 197.196 194.812C197.077 194.845 196.95 194.842 196.832 194.803C196.715 194.764 196.611 194.691 196.535 194.593C196.458 194.496 196.413 194.378 196.404 194.254C196.394 194.131 196.422 194.007 196.483 193.9C196.544 193.792 196.635 193.704 196.746 193.649C196.857 193.593 196.982 193.571 197.105 193.586C197.27 193.606 197.421 193.692 197.523 193.823C197.626 193.954 197.672 194.12 197.652 194.286Z" fill="white"/>
<path d="M182.902 193.845C182.902 193.845 186.761 181.996 207.391 185.329C207.391 185.329 212.854 186.016 215.184 183.329C215.184 183.329 214.727 188.552 207.562 187.389C200.397 186.226 195.011 187.746 195.011 187.746C195.011 187.746 188.047 189.002 185.412 193.032C185.412 193.062 184.391 195.105 182.902 193.845Z" fill="#161616"/>
<path d="M186.301 196.269C186.301 196.269 193.903 197.529 198.494 195.135C203.084 192.742 205.038 191.995 208.303 187.592H209.335C209.335 187.592 201.896 200.539 186.301 196.269Z" fill="#161616"/>
<path d="M151.698 192.859C151.698 192.859 155.354 193.832 156.038 196.719C156.038 196.719 153.591 197.385 151.698 196.135V192.859Z" fill="#D36E8A"/>
<path d="M153.534 195.946C153.534 195.946 153.935 190.966 145.11 188.336C136.286 185.706 129.695 187.593 129.695 187.593C129.695 187.593 136.914 199.379 153.534 195.946Z" fill="url(#paint6_linear_433_3161)"/>
<path d="M138.283 194.442C138.411 195.343 138.803 196.187 139.409 196.867C140.015 197.546 140.809 198.032 141.691 198.264C142.573 198.495 143.503 198.461 144.366 198.166C145.229 197.872 145.985 197.33 146.541 196.608C147.096 195.886 147.425 195.016 147.488 194.108C147.55 193.2 147.342 192.294 146.891 191.503C146.439 190.712 145.764 190.072 144.949 189.663C144.135 189.253 143.218 189.093 142.313 189.202C141.703 189.282 141.115 189.48 140.583 189.786C140.05 190.093 139.583 190.501 139.209 190.988C138.835 191.474 138.56 192.03 138.401 192.623C138.242 193.216 138.202 193.834 138.283 194.442Z" fill="#320909"/>
<path d="M138.556 194.409C138.677 195.253 139.044 196.044 139.613 196.68C140.181 197.317 140.925 197.773 141.751 197.989C142.578 198.206 143.45 198.174 144.258 197.898C145.067 197.622 145.775 197.114 146.296 196.437C146.816 195.761 147.125 194.946 147.184 194.095C147.242 193.244 147.048 192.395 146.625 191.654C146.202 190.912 145.57 190.312 144.807 189.928C144.044 189.545 143.184 189.394 142.336 189.496C141.765 189.571 141.214 189.757 140.714 190.044C140.215 190.332 139.778 190.714 139.427 191.171C139.076 191.627 138.818 192.148 138.669 192.703C138.52 193.259 138.481 193.839 138.556 194.409Z" fill="#471F1F"/>
<path d="M140.079 194.329C140.157 194.881 140.396 195.398 140.766 195.815C141.137 196.231 141.623 196.529 142.163 196.672C142.703 196.814 143.272 196.794 143.801 196.614C144.329 196.434 144.793 196.102 145.133 195.66C145.473 195.219 145.675 194.686 145.714 194.13C145.752 193.574 145.625 193.019 145.349 192.535C145.073 192.051 144.659 191.659 144.161 191.408C143.662 191.157 143.101 191.059 142.546 191.126C141.794 191.225 141.112 191.617 140.649 192.218C140.186 192.819 139.981 193.578 140.079 194.329Z" fill="#050505"/>
<path d="M140.359 194.286C140.374 194.409 140.425 194.526 140.507 194.621C140.588 194.715 140.695 194.784 140.815 194.818C140.936 194.851 141.063 194.849 141.182 194.81C141.3 194.771 141.405 194.698 141.482 194.6C141.559 194.502 141.606 194.384 141.615 194.259C141.625 194.135 141.597 194.011 141.536 193.902C141.475 193.793 141.383 193.705 141.271 193.649C141.16 193.593 141.034 193.571 140.91 193.586C140.745 193.606 140.594 193.692 140.491 193.823C140.388 193.954 140.34 194.12 140.359 194.286Z" fill="white"/>
<path d="M155.1 193.845C155.1 193.845 151.244 181.996 130.61 185.329C130.61 185.329 125.148 186.016 122.818 183.329C122.818 183.329 123.275 188.552 130.44 187.389C137.605 186.226 142.99 187.746 142.99 187.746C142.99 187.746 149.955 189.002 152.589 193.032C152.579 193.062 153.611 195.105 155.1 193.845Z" fill="#161616"/>
<path d="M151.698 196.269C151.698 196.269 144.095 197.529 139.505 195.135C134.914 192.742 132.961 191.995 129.695 187.592H128.664C128.664 187.592 136.106 200.539 151.698 196.269Z" fill="#161616"/>
<path d="M128.874 259.37C128.874 259.37 89.8975 195.706 118.427 149.894C146.957 104.082 187.005 123.378 187.005 123.378C187.005 123.378 212.81 128.475 214.453 142.654C216.096 156.834 227.678 156.8 220.002 176.486C220.002 176.486 217.621 157.39 206.58 157.454C206.58 157.454 213.501 162.12 212.4 168.027C212.4 168.027 195.485 152.927 185.576 155.054C185.576 155.054 192.751 156.1 194.851 163.567C194.851 163.567 187.82 158.9 165.296 156.15C165.296 156.15 152.048 154.267 132.874 145.451C132.881 145.451 101.954 166.927 128.874 259.37Z" fill="#161616"/>
<path d="M140.059 136.141C139.581 136.221 179.149 116.428 204.784 146.58C204.784 146.58 182.404 128.958 140.059 136.141Z" fill="#0A0A0A"/>
<path d="M139.558 135.848C139.197 135.831 171.373 127.551 184.932 154.31C184.922 154.31 171.61 137.451 139.558 135.848Z" fill="#0A0A0A"/>
<path d="M160.856 217.271C160.856 217.271 165.68 221.785 169.513 221.785C173.346 221.785 177.71 217.271 177.71 217.271C177.71 217.271 168.311 214.155 160.856 217.271Z" fill="#F2B186"/>
<path d="M160.856 217.271C160.856 217.271 158.589 198.909 169.273 198.909C179.957 198.909 178.177 216.908 178.177 216.908L177.7 217.265C177.7 217.265 174.782 219.431 169.273 219.431C163.764 219.431 160.856 217.271 160.856 217.271Z" fill="#FFC9A4"/>
<path d="M169.273 215.832C163.681 215.832 160.846 217.271 160.846 217.271C163.707 217.098 166.008 218.298 169.273 218.348C172.542 218.298 174.839 217.098 177.7 217.271C177.71 217.271 174.528 215.832 169.273 215.832Z" fill="#F2B186"/>
<path d="M172.335 217.662C172.335 217.662 173.426 216.408 175.416 216.942L172.335 217.662Z" fill="#B56969"/>
<path d="M164.081 216.925C164.081 216.925 165.417 216.125 167.236 217.728L164.081 216.925Z" fill="#B56969"/>
<g style="mix-blend-mode:multiply" opacity="0.6">
<path d="M175.586 209.175C175.586 209.175 178.438 211.362 178.187 216.915C177.55 214.264 176.679 211.674 175.586 209.175Z" fill="#D089BC"/>
</g>
<g style="mix-blend-mode:multiply" opacity="0.6">
<path d="M165.133 209.882C165.133 209.882 159.487 211.318 160.916 217.215C160.926 217.225 160.021 212.635 165.133 209.882Z" fill="#D089BC"/>
</g>
<path d="M172.915 212.755C172.879 211.705 173.47 210.522 173.917 210.632C174.364 210.742 174.141 213.018 173.917 213.455C173.693 213.892 172.915 212.755 172.915 212.755Z" fill="url(#paint7_linear_433_3161)"/>
<g style="mix-blend-mode:multiply" opacity="0.6">
<path d="M164.933 210.172C164.933 210.172 166.388 204.392 166.405 200.352L164.933 210.172Z" fill="#D089BC"/>
</g>
<g style="mix-blend-mode:multiply">
<path d="M278.21 401.555C278.079 398.222 252.167 450.604 236.545 432.507C236.545 432.507 236.181 412.085 234.088 396.399C231.995 380.713 238.135 347.11 252.939 335.538C267.743 323.965 278.21 372.87 278.21 372.87V401.555Z" fill="#DB8BC2"/>
</g>
<path d="M258.04 312.695C260.16 311.261 263.953 319.361 274.964 349.653C285.975 379.946 293.745 384.802 293.745 387.149C293.745 389.495 255.312 418.511 231.31 419.414C231.31 419.414 223.517 385.706 224.967 371.826C226.416 357.946 258.04 312.695 258.04 312.695Z" fill="#DDB94A"/>
<path style="mix-blend-mode:multiply" d="M240.095 413.241C240.095 413.241 244.318 405.908 243.911 388.456C243.503 371.003 244.912 368.413 246.348 364.93C248.949 358.67 255.423 345.597 255.423 345.597C255.423 345.597 243.116 357.573 238.842 363.48C234.569 369.386 233.5 371.633 234.369 372.903C235.237 374.173 242.639 399.499 240.095 413.241Z" fill="url(#paint8_linear_433_3161)"/>
<path d="M262.638 318.155C258.084 318.325 253.93 343.971 255.423 367.486C256.915 391.002 282.911 387.486 285.077 385.066C287.244 382.646 281.675 367.82 276.016 352.48C270.357 337.141 262.638 318.155 262.638 318.155Z" fill="#FFEBB3"/>
<g style="mix-blend-mode:multiply">
<path d="M240.559 417.654C240.559 417.654 277.392 388.482 293.912 386.812C293.912 386.825 275.629 406.238 240.559 417.654Z" fill="#C98BC2"/>
</g>
<g style="mix-blend-mode:multiply">
<path d="M59.0942 401.565C59.2244 398.232 85.1765 449.483 100.802 431.39C100.802 431.39 101.136 412.091 103.216 396.392C105.296 380.692 99.1592 347.123 84.3652 335.547C69.5712 323.971 59.0942 372.879 59.0942 372.879V401.565Z" fill="#DB8BC2"/>
</g>
<path d="M79.2636 312.695C77.1435 311.261 73.3507 319.361 62.3395 349.653C51.3283 379.946 43.559 384.802 43.559 387.149C43.559 389.495 81.9914 418.511 105.994 419.414C105.994 419.414 113.786 385.706 112.337 371.826C110.888 357.946 79.2636 312.695 79.2636 312.695Z" fill="#DDB94A"/>
<path style="mix-blend-mode:multiply" d="M97.2094 413.241C97.2094 413.241 92.9859 405.908 93.3932 388.456C93.8005 371.003 92.3916 368.413 90.9559 364.93C88.3584 358.67 81.8845 345.597 81.8845 345.597C81.8845 345.597 94.1878 357.573 98.4614 363.48C102.735 369.386 103.803 371.633 102.939 372.903C102.074 374.173 94.6653 399.499 97.2094 413.241Z" fill="url(#paint9_linear_433_3161)"/>
<path d="M74.6662 318.155C79.2202 318.325 83.3736 343.971 81.8845 367.486C80.3955 391.002 54.3933 387.486 52.2264 385.066C50.0596 382.646 55.6286 367.82 61.2878 352.48C66.947 337.141 74.6662 318.155 74.6662 318.155Z" fill="#FFEBB3"/>
<g style="mix-blend-mode:multiply">
<path d="M96.9156 418.114C96.9156 418.114 60.0958 388.942 43.559 387.275C43.559 387.275 61.842 406.685 96.9156 418.114Z" fill="#C98BC2"/>
</g>
<path style="mix-blend-mode:multiply" opacity="0.8" d="M140.56 332.037C140.56 330.704 140.56 326.871 140.677 321.791C140.66 327.271 140.603 330.754 140.56 332.037Z" fill="url(#paint10_linear_433_3161)"/>
<path d="M238.672 522.158C231.631 507.558 207.769 483.492 207.769 483.492L168.829 485.385L129.892 483.492C129.892 483.492 106.027 507.558 98.9856 522.158C91.9442 536.757 140.693 547.033 168.829 547.033C196.965 547.033 245.73 536.757 238.672 522.158Z" fill="url(#paint11_linear_433_3161)"/>
<path d="M240.545 410.408C239.831 418.884 232.769 431.844 223.735 439.434C223.735 439.434 212.383 468.259 212.016 471.513C211.648 474.766 215.074 474.939 214.53 477.449C213.985 479.959 212.386 480.876 212.386 480.876C212.386 480.876 212.987 486.099 218.132 491.065C220.21 493.027 222.595 494.636 225.194 495.828C225.194 495.828 211.415 515.638 169.563 514.181C127.709 515.638 112.471 495.828 112.471 495.828C115.07 494.627 117.453 493.008 119.526 491.035L119.556 491.005C124.674 486.069 125.275 480.876 125.275 480.876C125.275 480.876 123.642 479.989 123.101 477.449C122.56 474.909 126.016 474.739 125.645 471.513C125.275 468.286 113.896 439.434 113.896 439.434C104.882 431.844 97.8304 418.884 97.1159 410.408C96.4014 401.932 103.433 372.366 102.718 370.743C102.004 369.119 74.0051 319.911 80.1317 311.635C86.2583 303.358 122.043 289.089 122.2 288.376C122.357 287.662 127.288 280.839 129.462 280.709C131.635 280.579 132.406 283.422 132.406 283.422L130.51 285.326C144.606 306.762 168.819 308.388 168.819 308.388C168.819 308.388 193.062 306.762 207.128 285.326L205.211 283.416C205.211 283.416 206.013 280.589 208.183 280.703C210.353 280.816 215.274 287.669 215.444 288.369C215.615 289.069 251.379 303.322 257.513 311.628C263.646 319.935 235.674 369.109 234.959 370.736C234.245 372.363 241.26 401.932 240.545 410.408Z" fill="#FFDC60"/>
<path style="mix-blend-mode:multiply" d="M98.3011 416.011C98.3011 416.011 136.663 423.918 174.939 423.558C213.214 423.198 219.718 422.838 219.718 422.838C219.718 422.838 194.744 427.138 163.07 430.427C142.439 432.571 149.841 445.55 120.955 442.667C115.165 442.087 99.423 425.571 98.3011 416.011Z" fill="url(#paint12_linear_433_3161)"/>
<path d="M168.682 418.858C159.774 416.231 128.1 399.152 127.709 371.563C127.318 343.974 153.03 362.563 162.368 376.819C171.707 391.075 168.886 372.879 179.904 350.984C190.921 329.088 206.413 349.984 205.245 374.789C204.076 399.595 168.682 418.858 168.682 418.858Z" fill="#F45656"/>
<path d="M201.625 343.244C202.704 359.3 216.793 355.397 217.398 339.194C218.002 322.991 200.163 321.458 201.625 343.244Z" fill="#F45656"/>
<path style="mix-blend-mode:multiply" d="M144.232 382.656C144.232 382.656 159.273 389.375 185.339 385.359C222.179 379.692 229.29 362.026 229.744 361.836C230.198 361.646 233.487 369.406 223.902 376.976C214.316 384.546 170.275 397.155 144.232 382.656Z" fill="url(#paint13_linear_433_3161)"/>
<path style="mix-blend-mode:multiply" opacity="0.5" d="M123.121 477.456C123.121 477.456 152.643 488.902 203.014 486.455C203.014 486.455 184.598 497.302 150.205 491.985C134.847 489.612 125.288 480.865 125.288 480.865C125.288 480.865 123.572 480.159 123.121 477.456Z" fill="url(#paint14_linear_433_3161)"/>
<path style="mix-blend-mode:multiply" opacity="0.5" d="M212.373 480.879C212.373 480.879 191.97 487.009 168.829 483.492C168.829 483.492 185.276 482.862 197.328 480.879C209.381 478.896 214.516 476.396 214.516 476.396C214.516 476.396 215.231 478.943 212.373 480.879Z" fill="url(#paint15_linear_433_3161)"/>
<path style="mix-blend-mode:multiply" d="M225.194 495.828C225.194 495.828 211.415 515.638 169.563 514.181C127.709 515.638 112.471 495.828 112.471 495.828C115.07 494.627 117.453 493.008 119.526 491.035C119.329 491.662 117.012 499.738 129.963 505.761C143.484 512.041 184.791 515.978 203.462 507.561C221.241 499.542 218.439 491.778 218.126 491.065C220.205 493.028 222.593 494.637 225.194 495.828Z" fill="url(#paint16_linear_433_3161)"/>
<path style="mix-blend-mode:multiply" d="M223.735 439.434C216.286 444.017 192.35 447.503 168.832 448.883C145.314 450.263 121.315 440.32 115.185 437.987C109.055 435.654 98.3112 416.018 98.3112 416.018C98.3112 416.018 143.718 421.514 171.88 422.394C200.043 423.274 240.388 411.841 240.388 411.841C240.388 411.841 237.143 427.821 223.735 439.434Z" fill="url(#paint17_linear_433_3161)"/>
<path d="M216.469 288.956C216.469 288.956 198.053 323.954 169.346 323.954C140.64 323.954 122.22 288.372 122.22 288.372L125.305 284.082C125.305 284.082 142.626 311.082 169.346 311.082C196.066 311.082 211.465 283.083 211.465 283.083L215.444 288.362L216.469 288.956Z" fill="#D1A119"/>
<path d="M120.05 291.432C120.05 291.432 115.536 315.325 137.475 338.027C159.414 360.73 180.728 365.263 181.176 365.99C181.623 366.716 149.574 367.769 127.816 343.707C106.057 319.644 120.05 291.432 120.05 291.432Z" fill="#DDB94A"/>
<path d="M218.823 290.052C218.823 290.052 211.772 317.118 193.355 327.124C174.939 337.131 162.662 330.324 162.662 330.324C162.662 330.324 173.496 333.694 196.243 317.471C218.99 301.249 218.823 290.052 218.823 290.052Z" fill="#DDB94A"/>
<g style="mix-blend-mode:multiply">
<path d="M115.636 499.015L114.354 500.488C114.354 500.488 135.388 524.488 173.677 521.618C211.966 518.748 223.468 500.558 223.468 500.558L222.266 499.015C222.266 499.015 200.477 514.181 169.563 514.181C138.65 514.181 115.636 499.015 115.636 499.015Z" fill="#C98BC2"/>
</g>
<g style="mix-blend-mode:soft-light" opacity="0.3">
<path d="M104.131 409.678C95.9841 405.262 107.556 384.489 140.603 389.726C173.65 394.962 169.523 414.725 167.707 416.221C165.891 417.718 123.973 420.428 104.131 409.678Z" fill="#FFBAEF"/>
</g>
<g style="mix-blend-mode:soft-light" opacity="0.3">
<path d="M178.578 413.968C167.4 409.268 179.793 387.456 222.175 383.536C234.055 382.436 239.25 401.625 236.759 406.225C234.268 410.825 195.108 420.918 178.578 413.968Z" fill="#FFBAEF"/>
</g>
<path style="mix-blend-mode:multiply" d="M140.453 437.257C143.975 434.014 170.989 430.227 181.186 432.391C191.382 434.554 193.806 442.39 209.652 441.584C225.497 440.777 237.607 420.518 237.363 417.668C237.12 414.818 210.737 423.001 191.706 423.378C172.675 423.754 181.62 426.521 165.33 430.427C149.04 434.334 148.953 430.681 140.453 437.257Z" fill="url(#paint18_linear_433_3161)"/>
<path d="M1 357.647L6.79607 349.034H330.371L336 356.387L1 357.647Z" fill="url(#paint19_linear_433_3161)"/>
<path d="M286.89 349.034H194.864V357.65H286.89V349.034Z" fill="white"/>
<path d="M1 355.243L34.8883 549H314.702L336 353.987L1 355.243Z" fill="#D4C8E8"/>
<g style="mix-blend-mode:soft-light" opacity="0.5">
<path d="M194.864 353.646H286.89L96.6051 547.617H34.8883L29.8101 519.974L194.864 353.646Z" fill="white"/>
</g>
<g style="mix-blend-mode:soft-light" opacity="0.5">
<path d="M32.1739 533.984L34.885 547.627L314.702 549.01L318.021 527.344C318.021 527.344 308.379 541.37 301.541 542.11C294.703 542.85 50.7106 543.587 46.6173 540.634C42.524 537.681 32.1739 533.984 32.1739 533.984Z" fill="white"/>
</g>
<path d="M156.018 456.013C157.277 454.297 155.844 441.681 177.166 440.497C198.487 439.314 200.467 465.95 182.344 471.769C164.221 477.589 152.997 460.133 156.018 456.013Z" fill="white"/>
<path d="M190 197C194.8 197.8 198.667 196.333 200 195.5L201 198.5L198 203L191 201L190 197Z" fill="#FFC9A4"/>
<path d="M137.5 195.5C143.5 197.5 146.667 197.333 147.5 197L149 201.5L143 204L136.5 201C134.333 198.333 131.5 193.5 137.5 195.5Z" fill="#FFC9A4"/>
</g>
<defs>
<linearGradient id="paint0_linear_433_3161" x1="125.211" y1="196.239" x2="125.211" y2="120.265" gradientUnits="userSpaceOnUse">
<stop stop-color="#FFEADB"/>
<stop offset="0.99" stop-color="#D177F4"/>
</linearGradient>
<linearGradient id="paint1_linear_433_3161" x1="181.266" y1="182.313" x2="181.266" y2="174.856" gradientUnits="userSpaceOnUse">
<stop stop-color="#84263A"/>
<stop offset="1" stop-color="#983E43"/>
</linearGradient>
<linearGradient id="paint2_linear_433_3161" x1="156.739" y1="182.313" x2="156.739" y2="174.856" gradientUnits="userSpaceOnUse">
<stop stop-color="#84263A"/>
<stop offset="1" stop-color="#983E43"/>
</linearGradient>
<linearGradient id="paint3_linear_433_3161" x1="121.996" y1="269.29" x2="121.996" y2="249.45" gradientUnits="userSpaceOnUse">
<stop stop-color="#FFEADB"/>
<stop offset="0.99" stop-color="#D177F4"/>
</linearGradient>
<linearGradient id="paint4_linear_433_3161" x1="169.43" y1="85.2395" x2="198.16" y2="85.2395" gradientUnits="userSpaceOnUse">
<stop stop-color="#FFEADB"/>
<stop offset="0.99" stop-color="#D177F4"/>
</linearGradient>
<linearGradient id="paint5_linear_433_3161" x1="196.387" y1="196.572" x2="196.387" y2="186.936" gradientUnits="userSpaceOnUse">
<stop stop-color="white"/>
<stop offset="1" stop-color="#DDD6FA"/>
</linearGradient>
<linearGradient id="paint6_linear_433_3161" x1="141.618" y1="196.572" x2="141.618" y2="186.936" gradientUnits="userSpaceOnUse">
<stop stop-color="white"/>
<stop offset="1" stop-color="#DDD6FA"/>
</linearGradient>
<linearGradient id="paint7_linear_433_3161" x1="172.912" y1="212.088" x2="174.184" y2="212.088" gradientUnits="userSpaceOnUse">
<stop stop-color="white"/>
<stop offset="1" stop-color="#DDD6FA"/>
</linearGradient>
<linearGradient id="paint8_linear_433_3161" x1="244.755" y1="413.241" x2="244.755" y2="345.6" gradientUnits="userSpaceOnUse">
<stop stop-color="#8E47B8"/>
<stop offset="1" stop-color="white"/>
</linearGradient>
<linearGradient id="paint9_linear_433_3161" x1="92.5485" y1="413.241" x2="92.5485" y2="345.6" gradientUnits="userSpaceOnUse">
<stop stop-color="#8E47B8"/>
<stop offset="1" stop-color="white"/>
</linearGradient>
<linearGradient id="paint10_linear_433_3161" x1="140.63" y1="332.037" x2="140.63" y2="321.791" gradientUnits="userSpaceOnUse">
<stop stop-color="#AC3965"/>
<stop offset="1" stop-color="white"/>
</linearGradient>
<linearGradient id="paint11_linear_433_3161" x1="168.829" y1="547.033" x2="168.829" y2="483.492" gradientUnits="userSpaceOnUse">
<stop offset="0.02" stop-color="#FF8D5B"/>
<stop offset="1" stop-color="#FF6F6B"/>
</linearGradient>
<linearGradient id="paint12_linear_433_3161" x1="98.3011" y1="429.547" x2="219.718" y2="429.547" gradientUnits="userSpaceOnUse">
<stop stop-color="#C000C9"/>
<stop offset="1" stop-color="white"/>
</linearGradient>
<linearGradient id="paint13_linear_433_3161" x1="144.232" y1="375.563" x2="230.649" y2="375.563" gradientUnits="userSpaceOnUse">
<stop stop-color="white"/>
<stop offset="1" stop-color="#C000C9"/>
</linearGradient>
<linearGradient id="paint14_linear_433_3161" x1="123.121" y1="485.459" x2="203.014" y2="485.459" gradientUnits="userSpaceOnUse">
<stop stop-color="#8E47B8"/>
<stop offset="1" stop-color="white"/>
</linearGradient>
<linearGradient id="paint15_linear_433_3161" x1="168.829" y1="480.489" x2="214.593" y2="480.489" gradientUnits="userSpaceOnUse">
<stop stop-color="white"/>
<stop offset="1" stop-color="#8E47B8"/>
</linearGradient>
<linearGradient id="paint16_linear_433_3161" x1="168.832" y1="514.258" x2="168.832" y2="491.035" gradientUnits="userSpaceOnUse">
<stop stop-color="#8E47B8"/>
<stop offset="1" stop-color="white"/>
</linearGradient>
<linearGradient id="paint17_linear_433_3161" x1="98.3011" y1="430.427" x2="240.388" y2="430.427" gradientUnits="userSpaceOnUse">
<stop stop-color="white"/>
<stop offset="1" stop-color="#E047B8"/>
</linearGradient>
<linearGradient id="paint18_linear_433_3161" x1="140.453" y1="429.354" x2="237.373" y2="429.354" gradientUnits="userSpaceOnUse">
<stop stop-color="white"/>
<stop offset="1" stop-color="#C000C9"/>
</linearGradient>
<linearGradient id="paint19_linear_433_3161" x1="1" y1="353.34" x2="336" y2="353.34" gradientUnits="userSpaceOnUse">
<stop stop-color="#D8CAEF"/>
<stop offset="1" stop-color="#EADEF4"/>
</linearGradient>
<clipPath id="clip0_433_3161">
<rect width="335" height="481" fill="white" transform="translate(1 68)"/>
</clipPath>
</defs>
</svg>
