<svg width="24" height="23" viewBox="0 0 24 23" fill="none" xmlns="http://www.w3.org/2000/svg">
<path fill-rule="evenodd" clip-rule="evenodd" d="M9.67281 0.931972C6.82111 1.27946 4.34984 2.79512 2.75784 5.17305C1.28157 7.37813 0.803009 10.1556 1.44916 12.7683C1.69606 13.7666 2.18836 14.8816 2.75784 15.7322C4.55594 18.4181 7.51001 20.0119 10.7028 20.0189C12.7996 20.0235 14.7571 19.3755 16.4564 18.1142L16.8489 17.8229L19.1554 20.1351C20.7086 21.6921 21.5173 22.4732 21.6316 22.5269C22.1735 22.7812 22.8249 22.4064 22.8746 21.8117C22.911 21.375 22.9605 21.4338 20.4279 18.9005L18.0996 16.5716L18.3908 16.1789C19.6513 14.4787 20.299 12.5203 20.2944 10.4225C20.2913 8.96002 19.9623 7.54827 19.3226 6.25225C18.3714 4.32491 16.8339 2.78672 14.9313 1.85903C13.8814 1.34709 12.9227 1.06804 11.7307 0.927474C11.308 0.877621 10.0972 0.880294 9.67281 0.931972ZM11.4831 2.70925C13.2861 2.88477 14.9366 3.66694 16.226 4.95692C17.3955 6.12713 18.1319 7.56278 18.4137 9.22223C18.5017 9.74011 18.5142 11.0554 18.436 11.5558C18.1697 13.2587 17.4162 14.755 16.2247 15.9471C15.0332 17.1392 13.5376 17.8931 11.8356 18.1595C11.3354 18.2378 10.0208 18.2252 9.50318 18.1372C7.84456 17.8553 6.40964 17.1185 5.24001 15.9484C3.12343 13.8307 2.4121 10.7465 3.38534 7.90695C4.14926 5.67816 5.9597 3.86677 8.18857 3.10116C9.26134 2.73267 10.3695 2.60084 11.4831 2.70925Z" fill="white" stroke="white" stroke-width="0.5"/>
</svg>
