<svg width="19" height="23" viewBox="0 0 19 23" fill="none" xmlns="http://www.w3.org/2000/svg">
<path fill-rule="evenodd" clip-rule="evenodd" d="M8.54689 1.06779C5.96432 1.5575 4.08715 3.90663 4.08715 6.64887C4.08715 8.21585 4.63779 9.57129 5.7284 10.6889C6.4423 11.4205 7.23162 11.8849 8.22559 12.1584C8.71594 12.2933 9.72113 12.3416 10.2753 12.2569C11.9538 12.0004 13.4681 10.8903 14.2746 9.3254C14.5258 8.83797 14.7906 8.00173 14.8646 7.46218C14.9876 6.56625 14.8689 5.48998 14.5493 4.60359C13.8945 2.78688 12.2851 1.4062 10.428 1.06769C9.9326 0.977395 9.02347 0.977445 8.54689 1.06779ZM10.3926 2.73729C11.8234 3.1268 12.8845 4.23438 13.2451 5.7146C13.3809 6.27213 13.3607 7.15832 13.1992 7.72488C12.7971 9.13632 11.8782 10.0968 10.5278 10.5171C10.1754 10.6268 10.0028 10.6501 9.52256 10.6523C8.85818 10.6554 8.4678 10.5713 7.91174 10.3054C6.8177 9.78213 6.07177 8.83382 5.74574 7.55177C5.63283 7.10771 5.63554 6.18588 5.75115 5.7146C6.14453 4.11091 7.39511 2.91475 8.94278 2.66194C9.31475 2.60114 10.0288 2.63826 10.3926 2.73729ZM3.86321 11.446C3.65106 11.4961 3.46867 11.6435 3.1625 12.012C1.97941 13.4362 1.31789 14.9289 1.06535 16.744C0.957606 17.5185 0.98558 18.3827 1.13091 18.769C1.845 20.6674 5.31531 22.0043 9.51826 22C13.8384 21.9956 17.3208 20.5944 17.9064 18.6248C18.0752 18.057 18.0102 16.826 17.7559 15.7753C17.4917 14.6838 16.9529 13.5058 16.3188 12.6332C15.9161 12.0791 15.4732 11.5913 15.2784 11.4874C15.0426 11.3617 14.677 11.3824 14.4833 11.5325C14.3039 11.6715 14.1384 11.993 14.1375 12.2039C14.1365 12.443 14.2434 12.6304 14.6506 13.1038C15.706 14.3309 16.3084 15.8296 16.4315 17.5349C16.458 17.9027 16.449 18.0318 16.3853 18.1914C16.0205 19.1066 14.0274 19.9406 11.431 20.2646C10.4728 20.3842 8.53017 20.3846 7.56581 20.2655C5.0258 19.9517 3.00533 19.1153 2.62529 18.2204C2.54494 18.0312 2.53639 17.9347 2.56499 17.5386C2.68839 15.8303 3.28338 14.3458 4.34418 13.0995C4.77128 12.5978 4.81187 12.5243 4.81187 12.2528C4.81187 11.7194 4.35404 11.3301 3.86321 11.446Z" fill="#2E2E2E" stroke="#2E2E2E" stroke-width="0.5"/>
</svg>
