<svg width="27" height="15" viewBox="0 0 27 15" fill="none" xmlns="http://www.w3.org/2000/svg">
<path d="M0.74 14V-9.53674e-07H7.12C8.56 -9.53674e-07 9.68667 0.366666 10.5 1.1C11.3267 1.83333 11.74 2.79333 11.74 3.98C11.74 4.95333 11.4733 5.78667 10.94 6.48C10.42 7.16 9.67333 7.61333 8.7 7.84L13.1 14H10.44L6.22 8.08H2.94V14H0.74ZM2.94 6.14H6.98C7.79333 6.14 8.42 5.96667 8.86 5.62C9.3 5.26 9.52 4.74 9.52 4.06C9.52 3.40667 9.29333 2.90667 8.84 2.56C8.4 2.2 7.78 2.02 6.98 2.02H2.94V6.14ZM25.328 12.66C24.2346 13.7267 22.8213 14.26 21.088 14.26C19.3546 14.26 17.9413 13.7267 16.848 12.66C15.768 11.58 15.228 10.0533 15.228 8.08V-9.53674e-07H17.428V8.16C17.428 9.46667 17.7613 10.4667 18.428 11.16C19.0946 11.8533 19.9813 12.2 21.088 12.2C22.208 12.2 23.1013 11.8533 23.768 11.16C24.4346 10.4667 24.768 9.46667 24.768 8.16V-9.53674e-07H26.968V8.08C26.968 10.0533 26.4213 11.58 25.328 12.66Z" fill="#2E2E2E"/>
</svg>
