<svg width="23" height="23" viewBox="0 0 23 23" fill="none" xmlns="http://www.w3.org/2000/svg">
<path d="M4.62845 0.79781L4.62845 0.797808C5.28695 0.672462 5.99796 0.796329 6.568 1.1375C6.70428 1.21904 6.83261 1.34092 7.04515 1.58692C7.25967 1.83521 7.57725 2.23111 8.09114 2.88153C8.42729 3.30699 8.74721 3.72006 8.99203 4.04308C9.11437 4.2045 9.21853 4.34419 9.2968 4.45206C9.37012 4.55311 9.43217 4.64159 9.45892 4.69092L4.62845 0.79781ZM4.62845 0.79781C2.95579 1.11625 1.68982 1.91128 1.11276 3.08989L4.62845 0.79781ZM1.00023 5.08271L0.750234 5.08368C0.748242 4.57146 0.757883 4.23079 0.810128 3.93889C0.863822 3.63892 0.960471 3.40089 1.11276 3.0899L1.00023 5.08271ZM1.00023 5.08271L0.750234 5.08369C0.765146 8.91265 2.16928 12.7416 4.69282 15.8507L4.87542 15.7025L4.69283 15.8507C5.21799 16.4977 6.46374 17.7455 7.1009 18.2626L7.25844 18.0685L7.10091 18.2626C10.1436 20.7317 13.7272 22.0873 17.617 22.2401C18.5024 22.2748 18.9959 22.2228 19.5679 22.0142C20.0561 21.8363 20.3699 21.6359 20.7784 21.2475L20.7785 21.2475M1.00023 5.08271L20.7785 21.2475M20.7785 21.2475C21.3343 20.719 21.7296 20.0382 21.9886 19.1874C22.2701 18.2627 22.331 17.6068 22.1384 17.007C22.09 16.8563 22.0443 16.7199 21.9743 16.5872C21.9024 16.4507 21.8098 16.3269 21.6746 16.187C21.4145 15.9181 20.9692 15.5638 20.1495 14.9166L19.9946 15.1128M20.7785 21.2475L19.9946 15.1128M19.9946 15.1128L20.1495 14.9166C19.7312 14.5864 19.3269 14.272 19.0122 14.0314C18.8549 13.9111 18.7195 13.8088 18.6156 13.732C18.5174 13.6594 18.4348 13.6 18.3916 13.5747C18.3916 13.5747 18.3916 13.5746 18.3916 13.5746L18.2651 13.7903L19.9946 15.1128ZM11.0049 13.2209L11.0049 13.2209C11.5735 13.6728 12.4265 14.227 12.9584 14.4923C13.1641 14.5949 13.4634 14.7219 13.7289 14.8236C13.8613 14.8743 13.9821 14.9175 14.0761 14.9476C14.1031 14.9562 14.1269 14.9635 14.1477 14.9695C14.1784 14.9436 14.2169 14.9104 14.2619 14.8705C14.3842 14.7623 14.5482 14.6119 14.724 14.4456C14.724 14.4456 14.724 14.4456 14.724 14.4456L14.8958 14.6272L11.0049 13.2209ZM11.0049 13.2209C10.4515 12.7811 9.4895 11.7947 9.08616 11.2543C8.47781 10.439 8.06029 9.55525 7.97562 8.96258L7.72813 8.99794L7.97562 8.96257L7.96295 8.87389L8.5165 8.2968L8.5165 8.2968M11.0049 13.2209L8.5165 8.2968M8.5165 8.2968C8.69428 8.11144 8.8732 7.91648 9.01871 7.75112M8.5165 8.2968L9.01871 7.75112M7.38727 7.34684L7.38728 7.34683C7.82156 6.88859 8.04109 6.63997 8.15752 6.44811C8.25885 6.28115 8.28021 6.16153 8.28021 5.93449C8.28021 5.71966 8.25953 5.62627 8.19067 5.47657M7.38727 7.34684L5.75059 2.37518C5.77154 2.38436 5.78852 2.39249 5.80078 2.39892C5.80329 2.40023 5.80537 2.40136 5.80706 2.40229C5.81113 2.40645 5.81882 2.41437 5.83089 2.4276C5.85356 2.45244 5.88379 2.48706 5.92118 2.53111C5.99571 2.61893 6.0941 2.73877 6.20885 2.88108C6.43809 3.16537 6.72919 3.535 7.01846 3.90796C7.30774 4.2809 7.59436 4.65608 7.81469 4.95141C7.92497 5.09922 8.01786 5.22598 8.08593 5.32202C8.12005 5.37016 8.14699 5.40926 8.16642 5.43875C8.18025 5.45976 8.18721 5.47134 8.18994 5.47587C8.19167 5.47875 8.19169 5.47878 8.19067 5.47657M7.38727 7.34684C7.18333 7.56205 6.99051 7.7713 6.84384 7.93542M7.38727 7.34684L6.84384 7.93542M8.19067 5.47657C8.19066 5.47655 8.19066 5.47654 8.19065 5.47653L8.41777 5.37205L8.19067 5.47657ZM9.01871 7.75112C9.15921 7.59146 9.28144 7.44503 9.33465 7.36348M9.01871 7.75112L9.33465 7.36348M9.33465 7.36348C9.84102 6.58764 9.89447 5.49408 9.45894 4.69096L9.33463 7.36351C9.33464 7.3635 9.33464 7.36349 9.33465 7.36348ZM6.84384 7.93542C6.77065 8.01734 6.70797 8.0891 6.66083 8.14526M6.84384 7.93542L6.66083 8.14526M6.66083 8.14526C6.63736 8.17322 6.61657 8.1987 6.5998 8.2204M6.66083 8.14526L6.5998 8.2204M6.5998 8.2204C6.5868 8.23722 6.56496 8.26593 6.54946 8.29504L6.5998 8.2204ZM5.28526 2.25488C5.40282 2.26937 5.52302 2.29404 5.61086 2.32227L6.54943 8.2951C6.50403 8.38044 6.48925 8.4846 6.48319 8.5684C6.4765 8.66097 6.47837 8.76728 6.48657 8.87879C6.50301 9.10218 6.54633 9.36559 6.61232 9.61716C6.91339 10.7652 7.70709 12.0146 8.74636 13.13C9.78823 14.2481 11.0948 15.2509 12.4472 15.8975C12.854 16.092 13.3105 16.2605 13.6977 16.3698C13.8911 16.4243 14.0723 16.4655 14.2246 16.4871C14.3006 16.4979 14.3739 16.5045 14.4406 16.5043C14.5029 16.5042 14.5789 16.4983 14.6494 16.4716C14.6906 16.456 14.7276 16.4293 14.7411 16.4195L14.7425 16.4184C14.7643 16.4027 14.7895 16.3831 14.8164 16.3614C14.8706 16.3177 14.9403 16.2586 15.0198 16.1893C15.1793 16.0503 15.3843 15.8648 15.5969 15.666C16.0723 15.2217 16.3414 14.9885 16.5486 14.8623C16.7333 14.7498 16.8636 14.7249 17.081 14.7251H17.081C17.2109 14.7253 17.2913 14.7312 17.3567 14.7437C17.419 14.7556 17.4768 14.7752 17.5581 14.813C17.5577 14.8129 17.5712 14.82 17.6056 14.8421C17.637 14.8623 17.6779 14.89 17.7278 14.9248C17.8275 14.9944 17.958 15.089 18.1107 15.2022C18.4157 15.4286 18.8048 15.7263 19.2039 16.0406L19.3586 15.8442L19.2039 16.0406C20.0231 16.6856 20.409 16.9918 20.6021 17.2016C20.6916 17.2989 20.7244 17.3601 20.7417 17.4118C20.7615 17.4714 20.7683 17.5381 20.7776 17.6746C20.7928 17.8982 20.7403 18.2423 20.6327 18.6153C20.5261 18.9842 20.3735 19.354 20.2076 19.6262C19.875 20.1721 19.5463 20.45 19.0389 20.6374C18.8623 20.7027 18.5725 20.7468 18.1872 20.7607C17.8077 20.7744 17.3553 20.7583 16.8656 20.7146C15.8856 20.627 14.7722 20.4304 13.8184 20.1518C11.7324 19.5426 9.85491 18.573 8.19996 17.2514C7.58292 16.7587 6.54255 15.746 6.00871 15.1181L5.81824 15.28L6.00871 15.118C4.12079 12.8975 2.86048 10.1535 2.41208 7.28823C2.29657 6.55002 2.23265 5.84367 2.22126 5.25634C2.20967 4.65881 2.25342 4.21479 2.33467 3.98216L2.33468 3.98215C2.63925 3.10999 3.53439 2.48208 5.0307 2.24544L4.99165 1.99851L5.03071 2.24544C5.07015 2.2392 5.16237 2.23974 5.28526 2.25488Z" fill="#2E2E2E" stroke="#2E2E2E" stroke-width="0.5"/>
</svg>
