<svg width="48" height="48" viewBox="0 0 48 48" fill="none" xmlns="http://www.w3.org/2000/svg">
<path fill-rule="evenodd" clip-rule="evenodd" d="M35.7666 6.00861C42.1492 9.31612 47.508 12.1362 47.6753 12.2751C47.9139 12.473 47.9796 15.1638 47.9796 24.7294V36.9311L47.0593 37.5123C45.165 38.7091 40.7226 40.7999 40.2252 40.7289L39.7091 40.6552L39.5892 27.7123L39.4694 14.7694L34.9146 12.4104C32.4095 11.1129 27.6303 8.63845 24.2941 6.91153C19.2177 4.28361 18.2404 3.69445 18.301 3.29912C18.3523 2.96568 19.1854 2.41107 21.1305 1.4158C22.6467 0.640012 23.9491 0.0028809 24.0247 2.29626e-06C24.1002 -0.00287631 29.3842 2.70109 35.7666 6.00861ZM23.4745 11.2964C29.1073 14.2136 33.9595 16.7535 34.2573 16.9403L34.7988 17.2803L34.7367 30.6329L34.6749 43.9855L30.916 45.9188C27.824 47.509 27.101 47.7966 26.8407 47.5401C26.5887 47.2919 26.4998 44.4195 26.4044 33.4316L26.2845 19.6347L16.6956 14.6677C9.39095 10.8838 7.0908 9.58743 7.03997 9.22569C6.98652 8.84379 7.48011 8.48133 9.55708 7.37666C10.9782 6.62103 12.3865 6.00045 12.6869 5.99733C12.9873 5.99445 17.8417 8.3789 23.4745 11.2964ZM11.5643 16.7741C21.451 21.8944 21.7319 22.0595 21.806 22.787L21.8825 23.5352L16.5321 20.7595C13.5895 19.2329 8.72787 16.7161 5.72821 15.1664C2.72878 13.6168 0.274725 12.2844 0.274485 12.2058C0.274485 12.1268 0.517086 11.9452 0.813864 11.802C1.11064 11.6591 1.36355 11.5346 1.37602 11.5257C1.38872 11.5166 5.97344 13.8785 11.5643 16.7741ZM21.8496 25.2413V25.9372L15.3172 22.5707C-0.556158 14.3904 0.162534 14.7958 0.0812675 13.9761L0.00791203 13.2363L10.9288 18.8908C21.5215 24.3755 21.8496 24.5662 21.8496 25.2413ZM11.0793 21.4046C21.4114 26.759 21.8415 27.009 21.8456 27.6615C21.8477 28.0354 21.7466 28.3053 21.6207 28.2612C21.4949 28.2173 16.5891 25.6985 10.7193 22.664C0.59284 17.4292 0.0462682 17.1128 0.0405149 16.487C0.0373985 16.124 0.0982889 15.8273 0.175959 15.8273C0.25387 15.8273 5.1603 18.3372 11.0793 21.4046ZM11.1819 23.9051C20.926 28.9636 21.7355 29.4311 21.8055 30.0404C21.8472 30.4031 21.8022 30.7001 21.7051 30.7001C21.6082 30.7001 16.6927 28.1911 10.7818 25.1245C0.410646 19.7439 0.034761 19.5249 0.034761 18.8618C0.034761 18.4041 0.134726 18.2172 0.334416 18.3022C0.499346 18.3722 5.38061 20.8934 11.1819 23.9051ZM16.6956 29.2243C21.5651 31.757 21.7324 31.8683 21.8072 32.6213L21.8846 33.3997L20.3689 32.5625C19.5351 32.1022 14.6191 29.5419 9.44393 26.873C0.261061 22.1372 0.034761 22.0033 0.034761 21.3086V20.5967L5.84807 23.6012C9.04551 25.2538 13.9268 27.784 16.6956 29.2243ZM13.1596 29.849C21.6181 34.2225 21.8496 34.3612 21.8496 35.0523V35.7626L16.7555 33.1227C-1.05191 23.8946 0.162295 24.5782 0.0771926 23.7331L0 22.9636L2.23471 24.1594C3.46401 24.8172 8.38027 27.3774 13.1596 29.849ZM11.1102 31.2261C21.3987 36.5561 21.8496 36.8178 21.8496 37.4631C21.8496 37.8335 21.8223 38.1365 21.7888 38.1365C21.7552 38.1365 16.8739 35.6234 10.9412 32.552C1.01667 27.4139 0.148631 26.9157 0.0788716 26.315C0.0371596 25.9561 0.0858209 25.6625 0.186984 25.6625C0.288148 25.6625 5.20369 28.1662 11.1102 31.2261ZM11.0693 33.6386C21.4124 38.9938 21.8415 39.243 21.8456 39.8955C21.8477 40.2695 21.743 40.5394 21.6126 40.4952C21.4821 40.4513 16.5767 37.9326 10.7113 34.898C0.595236 29.6643 0.0467474 29.3469 0.0409941 28.721C0.0376379 28.3583 0.0937324 28.0614 0.165889 28.0614C0.238046 28.0614 5.14448 30.5713 11.0693 33.6386ZM11.1819 36.1411C20.921 41.1964 21.7355 41.6668 21.8055 42.2752C21.8472 42.6376 21.8003 42.9341 21.7008 42.9341C21.6015 42.9341 16.686 40.4278 10.7775 37.3643C0.378285 31.9727 0.034761 31.7724 0.034761 31.1016C0.034761 30.6387 0.134246 30.4516 0.334416 30.5374C0.499346 30.6082 5.38061 33.1299 11.1819 36.1411ZM16.2161 41.2147C21.5646 43.9913 21.7322 44.1002 21.807 44.8539L21.8844 45.6307L19.8892 44.5534C18.792 43.9608 13.8759 41.4006 8.96448 38.8636C0.267293 34.371 0.034761 34.2324 0.034761 33.5408V32.8307L5.36862 35.5915C8.30236 37.1098 13.1836 39.6403 16.2161 41.2147ZM13.1596 42.0869C21.626 46.4609 21.8496 46.5948 21.8496 47.2883V48L16.5158 45.2394C-0.73811 36.31 0.162055 36.8173 0.0776718 35.9746L0.000479185 35.2065L2.23519 36.4019C3.46401 37.0594 8.38027 39.6175 13.1596 42.0869Z" fill="#2E2E2E"/>
</svg>
